<svg width="771" height="889" viewBox="0 0 771 889" fill="none" xmlns="http://www.w3.org/2000/svg">
<path d="M296.208 847.637L279.492 843.101L291.778 830.892L296.208 847.637ZM768.99 222.454C766.885 221.307 764.782 220.176 762.682 219.06L764.089 216.41C766.199 217.531 768.311 218.668 770.426 219.82L768.99 222.454ZM750.108 212.55C745.927 210.442 741.756 208.396 737.596 206.411L738.888 203.703C743.068 205.698 747.258 207.754 751.459 209.872L750.108 212.55ZM725.147 200.637C720.783 198.671 716.43 196.772 712.091 194.939L713.258 192.176C717.619 194.018 721.993 195.926 726.379 197.902L725.147 200.637ZM699.107 189.637C694.792 187.935 690.49 186.299 686.202 184.727L687.234 181.91C691.545 183.491 695.87 185.136 700.207 186.846L699.107 189.637ZM672.936 180.055C668.456 178.541 663.992 177.098 659.544 175.725L660.429 172.858C664.902 174.24 669.391 175.691 673.896 177.213L672.936 180.055ZM646.25 171.812C641.727 170.547 637.221 169.353 632.734 168.231L633.462 165.321C637.976 166.45 642.509 167.65 647.058 168.923L646.25 171.812ZM619.021 165.008C614.469 164.007 609.938 163.08 605.426 162.224L605.985 159.277C610.525 160.138 615.085 161.071 619.665 162.078L619.021 165.008ZM591.662 159.827C586.997 159.087 582.354 158.424 577.735 157.838L578.113 154.862C582.763 155.452 587.436 156.119 592.133 156.864L591.662 159.827ZM563.95 156.306C559.27 155.86 554.615 155.493 549.987 155.203L550.175 152.209C554.835 152.501 559.522 152.87 564.235 153.319L563.95 156.306ZM535.974 154.558C531.331 154.421 526.716 154.363 522.13 154.382L522.118 151.382C526.738 151.363 531.386 151.422 536.063 151.559L535.974 154.558ZM508.068 154.683C503.385 154.865 498.734 155.127 494.116 155.469L493.894 152.478C498.548 152.133 503.234 151.868 507.952 151.685L508.068 154.683ZM480.301 156.738C475.613 157.252 470.961 157.849 466.346 158.527L465.91 155.559C470.561 154.876 475.25 154.274 479.974 153.756L480.301 156.738ZM452.612 160.802C448.009 161.651 443.446 162.581 438.923 163.591L438.269 160.663C442.829 159.645 447.429 158.707 452.067 157.851L452.612 160.802ZM425.321 166.898C420.828 168.081 416.377 169.343 411.97 170.683L411.097 167.812C415.541 166.461 420.028 165.189 424.557 163.997L425.321 166.898ZM398.612 175.026C394.204 176.553 389.842 178.16 385.528 179.844L384.437 177.049C388.787 175.351 393.185 173.731 397.629 172.191L398.612 175.026ZM372.622 185.17C368.335 187.038 364.098 188.983 359.911 191.004L358.607 188.302C362.828 186.264 367.101 184.303 371.424 182.42L372.622 185.17ZM347.498 197.296C343.365 199.494 339.285 201.767 335.259 204.113L333.748 201.521C337.808 199.155 341.922 196.863 346.09 194.647L347.498 197.296ZM323.349 211.371C319.412 213.876 315.533 216.454 311.711 219.101L310.002 216.635C313.856 213.965 317.769 211.366 321.738 208.84L323.349 211.371ZM300.384 227.28C296.662 230.079 293.001 232.946 289.4 235.88L287.505 233.555C291.136 230.596 294.828 227.704 298.58 224.882L300.384 227.28ZM278.736 244.921C275.243 248 271.814 251.145 268.448 254.352L266.379 252.18C269.772 248.946 273.23 245.776 276.751 242.671L278.736 244.921ZM258.521 264.185C255.276 267.526 252.096 270.929 248.984 274.39L246.753 272.384C249.891 268.894 253.097 265.464 256.369 262.095L258.521 264.185ZM239.847 284.951C236.868 288.53 233.958 292.166 231.118 295.857L228.741 294.027C231.604 290.306 234.538 286.64 237.541 283.032L239.847 284.951ZM222.81 307.089C220.115 310.882 217.491 314.727 214.939 318.622L212.43 316.978C215.002 313.051 217.647 309.175 220.365 305.351L222.81 307.089ZM207.503 330.455C205.103 334.439 202.776 338.47 200.525 342.547L197.899 341.097C200.168 336.987 202.514 332.923 204.933 328.907L207.503 330.455ZM194.002 354.902C191.906 359.057 189.886 363.256 187.944 367.495L185.216 366.245C187.175 361.972 189.211 357.74 191.323 353.551L194.002 354.902ZM182.366 380.29C180.585 384.594 178.881 388.937 177.256 393.317L174.443 392.273C176.081 387.859 177.799 383.481 179.594 379.143L182.366 380.29ZM172.648 406.478C171.192 410.897 169.816 415.35 168.52 419.835L165.637 419.002C166.944 414.482 168.331 409.993 169.799 405.539L172.648 406.478ZM164.889 433.323C163.765 437.829 162.721 442.364 161.759 446.926L158.823 446.307C159.793 441.709 160.845 437.138 161.978 432.597L164.889 433.323ZM159.12 460.684C158.331 465.248 157.623 469.836 156.998 474.447L154.025 474.044C154.655 469.397 155.369 464.773 156.164 460.173L159.12 460.684ZM155.369 488.347C154.913 492.965 154.539 497.603 154.249 502.259L151.255 502.072C151.547 497.38 151.924 492.706 152.384 488.052L155.369 488.347ZM153.631 516.205C153.508 520.863 153.469 525.538 153.514 530.228L150.514 530.257C150.469 525.531 150.508 520.82 150.632 516.126L153.631 516.205ZM153.895 544.131C154.105 548.778 154.398 553.438 154.775 558.108L151.785 558.349C151.405 553.644 151.109 548.949 150.898 544.266L153.895 544.131ZM156.144 572C156.678 576.6 157.295 581.208 157.996 585.823L155.03 586.273C154.324 581.623 153.703 576.981 153.164 572.346L156.144 572ZM160.347 599.686C161.196 604.213 162.126 608.746 163.137 613.282L160.209 613.934C159.19 609.366 158.253 604.8 157.398 600.239L160.347 599.686ZM166.414 626.885C167.579 631.385 168.826 635.886 170.154 640.388L167.277 641.237C165.939 636.703 164.683 632.169 163.51 627.637L166.414 626.885ZM174.307 653.652C175.771 658.073 177.316 662.492 178.941 666.908L176.126 667.944C174.489 663.497 172.934 659.047 171.459 654.595L174.307 653.652ZM183.968 679.915C185.702 684.196 187.513 688.472 189.401 692.743L186.658 693.956C184.756 689.657 182.933 685.351 181.188 681.042L183.968 679.915ZM195.303 705.538C197.295 709.685 199.362 713.825 201.504 717.958L198.841 719.339C196.684 715.179 194.604 711.011 192.599 706.837L195.303 705.538ZM208.112 730.249C210.39 734.338 212.743 738.417 215.172 742.487L212.596 744.025C210.152 739.929 207.784 735.824 205.492 731.709L208.112 730.249ZM222.434 754.266C224.917 758.168 227.472 762.059 230.098 765.939L227.613 767.621C224.971 763.718 222.401 759.802 219.903 755.877L222.434 754.266ZM238.193 777.544C240.865 781.262 243.604 784.969 246.411 788.662L244.023 790.478C241.199 786.763 238.444 783.035 235.757 779.295L238.193 777.544ZM255.001 799.659C257.932 803.311 260.931 806.95 263.999 810.574L261.709 812.513C258.625 808.868 255.609 805.209 252.661 801.536L255.001 799.659ZM273.091 821.045C276.155 824.486 279.282 827.913 282.473 831.324L280.282 833.374C277.074 829.944 273.931 826.499 270.851 823.04L273.091 821.045Z" fill="url(#paint0_linear_415_2902)"/>
<g clip-path="url(#clip0_415_2902)">
<path d="M192.707 275.591C182.893 258.593 177.986 250.094 177.552 241.688C177.171 234.294 179.143 226.965 183.185 220.751C187.781 213.687 196.297 208.77 213.329 198.937L325.093 134.41C342.126 124.576 350.641 119.66 359.057 119.212C366.459 118.818 373.792 120.774 380.005 124.802C387.068 129.38 391.975 137.879 401.789 154.877L437.273 216.337L438.15 215.831C438.473 215.644 438.886 215.754 439.072 216.076L467.715 265.687C467.901 266.01 467.79 266.423 467.467 266.609L466.59 267.116L592.889 485.873C602.703 502.87 607.609 511.369 608.043 519.775C608.424 527.169 606.452 534.498 602.41 540.712C597.814 547.776 589.299 552.693 572.267 562.526L460.502 627.053C443.47 636.887 434.954 641.804 426.539 642.252C419.136 642.645 411.803 640.688 405.59 636.661C398.527 632.082 393.621 623.584 383.807 606.586L263.405 398.043L262.527 398.55C262.204 398.736 261.791 398.626 261.605 398.303L243.409 366.786C243.223 366.464 243.334 366.051 243.657 365.865L244.534 365.358L240.322 358.063L239.445 358.569C239.122 358.756 238.709 358.645 238.523 358.323L220.326 326.805C220.14 326.482 220.251 326.07 220.574 325.884L221.451 325.377L213.532 311.661L212.655 312.168C212.332 312.354 211.919 312.244 211.733 311.922L202.634 296.163C202.448 295.84 202.559 295.428 202.882 295.241L203.76 294.735L192.707 275.591Z" fill="#ADAFA4"/>
<g style="mix-blend-mode:multiply">
<mask id="mask0_415_2902" style="mask-type:alpha" maskUnits="userSpaceOnUse" x="177" y="119" width="432" height="524">
<g style="mix-blend-mode:multiply">
<g style="mix-blend-mode:multiply">
<path d="M192.707 275.591C182.893 258.593 177.986 250.094 177.552 241.688C177.171 234.294 179.143 226.965 183.185 220.751C187.781 213.687 196.297 208.77 213.329 198.937L325.094 134.41C342.126 124.576 350.641 119.66 359.057 119.212C366.459 118.818 373.792 120.775 380.005 124.802C387.068 129.38 391.975 137.879 401.789 154.877L592.889 485.873C602.703 502.87 607.609 511.369 608.043 519.775C608.424 527.169 606.453 534.498 602.41 540.712C597.815 547.776 589.299 552.693 572.267 562.526L460.503 627.053C443.47 636.887 434.954 641.804 426.539 642.252C419.136 642.645 411.803 640.688 405.59 636.661C398.527 632.082 393.621 623.584 383.807 606.586L192.707 275.591Z" fill="black"/>
</g>
</g>
</mask>
<g mask="url(#mask0_415_2902)">
<g style="mix-blend-mode:multiply">
<g style="mix-blend-mode:multiply" filter="url(#filter0_i_415_2902)">
<g style="mix-blend-mode:multiply">
<path d="M192.707 275.591C182.893 258.593 177.986 250.094 177.552 241.688C177.171 234.294 179.143 226.965 183.185 220.751C187.781 213.687 196.297 208.77 213.329 198.937L325.094 134.41C342.126 124.576 350.641 119.66 359.057 119.212C366.459 118.818 373.792 120.775 380.005 124.802C387.068 129.38 391.975 137.879 401.789 154.877L592.889 485.873C602.703 502.87 607.609 511.369 608.043 519.775C608.424 527.169 606.453 534.498 602.41 540.712C597.815 547.776 589.299 552.693 572.267 562.526L460.503 627.053C443.47 636.887 434.954 641.804 426.539 642.252C419.136 642.645 411.803 640.688 405.59 636.661C398.527 632.082 393.621 623.584 383.807 606.586L192.707 275.591Z" fill="#EBEBEB"/>
</g>
</g>
<path style="mix-blend-mode:multiply" d="M189.533 261.314L184.562 264.184L186.92 268.27L191.892 265.4L189.533 261.314Z" fill="url(#paint1_linear_415_2902)"/>
<path style="mix-blend-mode:multiply" d="M393.236 614.138L388.265 617.009L390.624 621.094L395.595 618.224L393.236 614.138Z" fill="url(#paint2_linear_415_2902)"/>
<path style="mix-blend-mode:multiply" d="M395.983 142.12L391.012 144.99L393.371 149.076L398.342 146.206L395.983 142.12Z" fill="url(#paint3_linear_415_2902)"/>
<path style="mix-blend-mode:multiply" d="M599.686 494.944L594.715 497.814L597.074 501.9L602.045 499.03L599.686 494.944Z" fill="url(#paint4_linear_415_2902)"/>
<path style="mix-blend-mode:multiply" d="M330.989 134.897L328.125 129.936L324.031 132.299L326.895 137.26L330.989 134.897Z" fill="url(#paint5_linear_415_2902)"/>
<path style="mix-blend-mode:multiply" d="M454.041 632.34L451.177 627.379L447.083 629.743L449.947 634.704L454.041 632.34Z" fill="url(#paint6_linear_415_2902)"/>
</g>
<g style="mix-blend-mode:multiply">
<path d="M213.851 202.002L327.487 136.394C335.433 131.807 341.381 128.373 346.324 126.032C351.264 123.693 355.182 122.455 359.066 122.248C365.924 121.883 372.718 123.696 378.473 127.427C381.733 129.541 384.505 132.564 387.608 137.05C390.714 141.538 394.142 147.474 398.72 155.404L590.899 488.267C595.477 496.197 598.904 502.133 601.238 507.067C603.571 511.998 604.803 515.91 605.004 519.789C605.357 526.639 603.53 533.43 599.785 539.186C597.664 542.446 594.633 545.221 590.137 548.329C585.639 551.44 579.691 554.874 571.745 559.461L458.109 625.069C450.163 629.657 444.215 633.091 439.273 635.431C434.332 637.771 430.414 639.008 426.53 639.215C419.672 639.58 412.879 637.767 407.123 634.036C403.863 631.923 401.091 628.9 397.987 624.414C394.882 619.926 391.454 613.989 386.876 606.059L194.698 273.196C190.119 265.266 186.692 259.33 184.358 254.397C182.025 249.466 180.793 245.553 180.592 241.674C180.239 234.824 182.066 228.034 185.811 222.277C187.932 219.017 190.963 216.243 195.459 213.134C199.957 210.024 205.905 206.589 213.851 202.002Z" fill="black"/>
<path d="M213.851 202.002L327.487 136.394C335.433 131.807 341.381 128.373 346.324 126.032C351.264 123.693 355.182 122.455 359.066 122.248C365.924 121.883 372.718 123.696 378.473 127.427C381.733 129.541 384.505 132.564 387.608 137.05C390.714 141.538 394.142 147.474 398.72 155.404L590.899 488.267C595.477 496.197 598.904 502.133 601.238 507.067C603.571 511.998 604.803 515.91 605.004 519.789C605.357 526.639 603.53 533.43 599.785 539.186C597.664 542.446 594.633 545.221 590.137 548.329C585.639 551.44 579.691 554.874 571.745 559.461L458.109 625.069C450.163 629.657 444.215 633.091 439.273 635.431C434.332 637.771 430.414 639.008 426.53 639.215C419.672 639.58 412.879 637.767 407.123 634.036C403.863 631.923 401.091 628.9 397.987 624.414C394.882 619.926 391.454 613.989 386.876 606.059L194.698 273.196C190.119 265.266 186.692 259.33 184.358 254.397C182.025 249.466 180.793 245.553 180.592 241.674C180.239 234.824 182.066 228.034 185.811 222.277C187.932 219.017 190.963 216.243 195.459 213.134C199.957 210.024 205.905 206.589 213.851 202.002Z" stroke="url(#paint7_linear_415_2902)" stroke-width="0.5" style="mix-blend-mode:multiply"/>
</g>
<g style="mix-blend-mode:multiply" filter="url(#filter1_ii_415_2902)">
<path style="mix-blend-mode:multiply" d="M202.634 296.163C202.448 295.84 202.559 295.428 202.882 295.241L203.76 294.735L213.532 311.661L212.655 312.168C212.332 312.354 211.919 312.244 211.733 311.922L202.634 296.163Z" fill="url(#paint8_linear_415_2902)"/>
</g>
<g style="mix-blend-mode:multiply" filter="url(#filter2_ii_415_2902)">
<path style="mix-blend-mode:multiply" d="M220.326 326.805C220.14 326.482 220.251 326.07 220.574 325.884L221.451 325.377L240.322 358.063L239.445 358.569C239.122 358.756 238.709 358.645 238.523 358.323L220.326 326.805Z" fill="url(#paint9_linear_415_2902)"/>
</g>
<g style="mix-blend-mode:multiply" filter="url(#filter3_ii_415_2902)">
<path style="mix-blend-mode:multiply" d="M437.273 216.337L438.15 215.831C438.473 215.644 438.886 215.754 439.072 216.076L467.715 265.687C467.901 266.01 467.79 266.423 467.467 266.609L466.59 267.116L437.273 216.337Z" fill="url(#paint10_linear_415_2902)"/>
</g>
<g style="mix-blend-mode:multiply" filter="url(#filter4_ii_415_2902)">
<path style="mix-blend-mode:multiply" d="M243.409 366.786C243.223 366.464 243.334 366.051 243.657 365.865L244.534 365.358L263.405 398.043L262.527 398.55C262.204 398.736 261.792 398.626 261.605 398.303L243.409 366.786Z" fill="url(#paint11_linear_415_2902)"/>
</g>
</g>
</g>
<g style="mix-blend-mode:screen">
<mask id="mask1_415_2902" style="mask-type:alpha" maskUnits="userSpaceOnUse" x="177" y="119" width="432" height="524">
<g style="mix-blend-mode:screen">
<g style="mix-blend-mode:screen">
<path d="M192.707 275.591C182.893 258.593 177.986 250.094 177.552 241.688C177.171 234.294 179.143 226.965 183.185 220.751C187.781 213.687 196.297 208.77 213.329 198.937L325.094 134.41C342.126 124.576 350.641 119.66 359.057 119.212C366.459 118.818 373.792 120.775 380.005 124.802C387.068 129.38 391.975 137.879 401.789 154.877L592.889 485.873C602.703 502.87 607.609 511.369 608.043 519.775C608.424 527.169 606.453 534.498 602.41 540.712C597.815 547.776 589.299 552.693 572.267 562.526L460.503 627.053C443.47 636.887 434.954 641.804 426.539 642.252C419.136 642.645 411.803 640.688 405.59 636.661C398.527 632.082 393.621 623.584 383.807 606.586L192.707 275.591Z" fill="black"/>
</g>
</g>
</mask>
<g mask="url(#mask1_415_2902)">
<g style="mix-blend-mode:screen">
<g style="mix-blend-mode:screen" filter="url(#filter5_ii_415_2902)">
<g style="mix-blend-mode:screen">
<path d="M192.707 275.591C182.893 258.593 177.986 250.094 177.552 241.688C177.171 234.294 179.143 226.965 183.185 220.751C187.781 213.687 196.297 208.77 213.329 198.937L325.094 134.41C342.126 124.576 350.641 119.66 359.057 119.212C366.459 118.818 373.792 120.775 380.005 124.802C387.068 129.38 391.975 137.879 401.789 154.877L592.889 485.873C602.703 502.87 607.609 511.369 608.043 519.775C608.424 527.169 606.453 534.498 602.41 540.712C597.815 547.776 589.299 552.693 572.267 562.526L460.503 627.053C443.47 636.887 434.954 641.804 426.539 642.252C419.136 642.645 411.803 640.688 405.59 636.661C398.527 632.082 393.621 623.584 383.807 606.586L192.707 275.591Z" fill="#050505"/>
</g>
</g>
<path style="mix-blend-mode:screen" d="M213.768 199.697L325.533 135.17C334.061 130.246 340.412 126.58 345.682 124.085C350.943 121.593 355.057 120.304 359.102 120.089C366.319 119.705 373.468 121.613 379.526 125.539C382.921 127.74 385.837 130.906 389.142 135.682C392.453 140.468 396.113 146.806 401.027 155.317L592.127 486.312C597.041 494.824 600.699 501.162 603.189 506.422C605.673 511.673 606.956 515.781 607.165 519.821C607.537 527.031 605.614 534.176 601.673 540.234C599.464 543.63 596.291 546.548 591.503 549.859C586.706 553.175 580.356 556.842 571.828 561.766L460.063 626.293C451.535 631.217 445.184 634.883 439.914 637.379C434.653 639.869 430.539 641.159 426.494 641.374C419.277 641.758 412.127 639.85 406.07 635.924C402.675 633.723 399.759 630.557 396.454 625.781C393.142 620.995 389.483 614.658 384.569 606.146L193.469 275.151C188.555 266.639 184.896 260.301 182.407 255.041C179.923 249.79 178.639 245.682 178.431 241.641C178.059 234.432 179.981 227.287 183.922 221.229C186.132 217.833 189.306 214.915 194.093 211.605C198.889 208.288 205.24 204.621 213.768 199.697Z" stroke="url(#paint12_linear_415_2902)" stroke-width="2"/>
<path style="mix-blend-mode:screen" d="M189.533 261.314L184.562 264.184L186.92 268.27L191.892 265.4L189.533 261.314Z" fill="url(#paint13_linear_415_2902)"/>
<path style="mix-blend-mode:screen" d="M393.236 614.138L388.265 617.009L390.624 621.094L395.595 618.224L393.236 614.138Z" fill="url(#paint14_linear_415_2902)"/>
<path style="mix-blend-mode:screen" d="M395.983 142.12L391.012 144.99L393.371 149.076L398.342 146.206L395.983 142.12Z" fill="url(#paint15_linear_415_2902)"/>
<path style="mix-blend-mode:screen" d="M599.686 494.944L594.715 497.814L597.074 501.9L602.045 499.03L599.686 494.944Z" fill="url(#paint16_linear_415_2902)"/>
<path style="mix-blend-mode:screen" d="M330.989 134.897L328.125 129.936L324.031 132.299L326.895 137.26L330.989 134.897Z" fill="url(#paint17_linear_415_2902)"/>
<path style="mix-blend-mode:screen" d="M454.041 632.34L451.177 627.379L447.083 629.743L449.947 634.704L454.041 632.34Z" fill="url(#paint18_linear_415_2902)"/>
</g>
<g style="mix-blend-mode:screen">
<path d="M213.851 202.002L327.487 136.394C335.433 131.807 341.381 128.373 346.324 126.032C351.264 123.693 355.182 122.455 359.066 122.248C365.924 121.883 372.718 123.696 378.473 127.427C381.733 129.541 384.505 132.564 387.608 137.05C390.714 141.538 394.142 147.474 398.72 155.404L590.899 488.267C595.477 496.197 598.904 502.133 601.238 507.067C603.571 511.998 604.803 515.91 605.004 519.789C605.357 526.639 603.53 533.43 599.785 539.186C597.664 542.446 594.633 545.221 590.137 548.329C585.639 551.44 579.691 554.874 571.745 559.461L458.109 625.069C450.163 629.657 444.215 633.091 439.273 635.431C434.332 637.771 430.414 639.008 426.53 639.215C419.672 639.58 412.879 637.767 407.123 634.036C403.863 631.923 401.091 628.9 397.987 624.414C394.882 619.926 391.454 613.989 386.876 606.059L194.698 273.196C190.119 265.266 186.692 259.33 184.358 254.397C182.025 249.466 180.793 245.553 180.592 241.674C180.239 234.824 182.066 228.034 185.811 222.277C187.932 219.017 190.963 216.243 195.459 213.134C199.957 210.024 205.905 206.589 213.851 202.002Z" fill="black"/>
<path d="M213.851 202.002L327.487 136.394C335.433 131.807 341.381 128.373 346.324 126.032C351.264 123.693 355.182 122.455 359.066 122.248C365.924 121.883 372.718 123.696 378.473 127.427C381.733 129.541 384.505 132.564 387.608 137.05C390.714 141.538 394.142 147.474 398.72 155.404L590.899 488.267C595.477 496.197 598.904 502.133 601.238 507.067C603.571 511.998 604.803 515.91 605.004 519.789C605.357 526.639 603.53 533.43 599.785 539.186C597.664 542.446 594.633 545.221 590.137 548.329C585.639 551.44 579.691 554.874 571.745 559.461L458.109 625.069C450.163 629.657 444.215 633.091 439.273 635.431C434.332 637.771 430.414 639.008 426.53 639.215C419.672 639.58 412.879 637.767 407.123 634.036C403.863 631.923 401.091 628.9 397.987 624.414C394.882 619.926 391.454 613.989 386.876 606.059L194.698 273.196C190.119 265.266 186.692 259.33 184.358 254.397C182.025 249.466 180.793 245.553 180.592 241.674C180.239 234.824 182.066 228.034 185.811 222.277C187.932 219.017 190.963 216.243 195.459 213.134C199.957 210.024 205.905 206.589 213.851 202.002Z" stroke="url(#paint19_linear_415_2902)" stroke-width="0.5" style="mix-blend-mode:screen"/>
</g>
<g style="mix-blend-mode:screen">
<path d="M189.394 241.211C189.677 246.707 192.886 252.264 199.302 263.378L397.681 606.98C404.098 618.095 407.306 623.652 411.924 626.645C415.986 629.278 420.781 630.558 425.621 630.301C431.123 630.007 436.692 626.793 447.828 620.363L572.81 548.205C583.946 541.775 589.514 538.561 592.519 533.942C595.162 529.879 596.451 525.087 596.202 520.252C595.919 514.756 592.71 509.199 586.294 498.085L387.915 154.483C381.498 143.369 378.29 137.812 373.671 134.818C369.609 132.185 364.815 130.905 359.975 131.163C354.472 131.456 348.904 134.67 337.768 141.1L327.994 146.743C327.51 147.022 327.268 147.162 327.115 147.344C326.858 147.65 326.75 148.053 326.819 148.445C326.86 148.68 326.999 148.921 327.278 149.404C329.509 153.269 330.625 155.202 330.954 157.075C331.506 160.215 330.638 163.44 328.584 165.885C327.359 167.343 325.422 168.462 321.55 170.697L246.527 214.012C242.654 216.247 240.718 217.365 238.842 217.697C235.698 218.254 232.471 217.393 230.027 215.345C228.57 214.123 227.454 212.191 225.223 208.326C224.944 207.843 224.804 207.601 224.622 207.449C224.317 207.193 223.913 207.085 223.52 207.155C223.286 207.196 223.044 207.336 222.56 207.615L212.786 213.258C201.65 219.688 196.081 222.903 193.077 227.521C190.433 231.584 189.144 236.376 189.394 241.211Z" fill="black"/>
</g>
<g style="mix-blend-mode:screen" filter="url(#filter6_iiii_415_2902)">
<path style="mix-blend-mode:screen" d="M202.634 296.163C202.448 295.84 202.559 295.428 202.882 295.241L203.76 294.735L213.532 311.661L212.655 312.168C212.332 312.354 211.919 312.244 211.733 311.922L202.634 296.163Z" fill="url(#paint20_linear_415_2902)"/>
</g>
<g style="mix-blend-mode:screen" filter="url(#filter7_iiii_415_2902)">
<path style="mix-blend-mode:screen" d="M220.326 326.805C220.14 326.482 220.251 326.07 220.574 325.884L221.451 325.377L240.322 358.063L239.445 358.569C239.122 358.756 238.709 358.645 238.523 358.323L220.326 326.805Z" fill="url(#paint21_linear_415_2902)"/>
</g>
<g style="mix-blend-mode:screen" filter="url(#filter8_iiii_415_2902)">
<path style="mix-blend-mode:screen" d="M437.273 216.337L438.15 215.831C438.473 215.644 438.886 215.754 439.072 216.076L467.715 265.687C467.901 266.01 467.79 266.423 467.467 266.609L466.59 267.116L437.273 216.337Z" fill="url(#paint22_linear_415_2902)"/>
</g>
<g style="mix-blend-mode:screen" filter="url(#filter9_iiii_415_2902)">
<path style="mix-blend-mode:screen" d="M243.409 366.786C243.223 366.464 243.334 366.051 243.657 365.865L244.534 365.358L263.405 398.043L262.527 398.55C262.204 398.736 261.792 398.626 261.605 398.303L243.409 366.786Z" fill="url(#paint23_linear_415_2902)"/>
</g>
</g>
</g>
<mask id="mask2_415_2902" style="mask-type:alpha" maskUnits="userSpaceOnUse" x="189" y="131" width="408" height="500">
<path d="M189.394 241.211C189.677 246.707 192.885 252.264 199.302 263.378L397.681 606.98C404.098 618.095 407.306 623.652 411.924 626.645C415.986 629.278 420.781 630.558 425.621 630.301C431.123 630.007 436.692 626.793 447.828 620.363L572.809 548.205C583.946 541.775 589.514 538.561 592.519 533.942C595.162 529.879 596.451 525.087 596.202 520.252C595.919 514.756 592.71 509.199 586.294 498.085L387.915 154.483C381.498 143.369 378.29 137.812 373.671 134.818C369.609 132.185 364.814 130.905 359.975 131.163C354.472 131.456 348.904 134.67 337.767 141.1L327.994 146.743C327.51 147.022 327.268 147.162 327.115 147.344C326.858 147.65 326.75 148.053 326.819 148.445C326.86 148.68 326.999 148.921 327.278 149.404C329.509 153.269 330.625 155.202 330.954 157.075C331.506 160.215 330.638 163.44 328.583 165.885C327.359 167.343 325.422 168.462 321.55 170.697L246.527 214.012C242.654 216.247 240.718 217.365 238.842 217.697C235.698 218.254 232.471 217.393 230.027 215.345C228.569 214.123 227.454 212.191 225.222 208.326C224.944 207.843 224.804 207.601 224.622 207.449C224.316 207.193 223.913 207.085 223.52 207.155C223.286 207.196 223.044 207.336 222.559 207.615L212.786 213.258C201.65 219.688 196.081 222.903 193.076 227.521C190.433 231.584 189.144 236.376 189.394 241.211Z" fill="#161616"/>
</mask>
<g mask="url(#mask2_415_2902)">
<path d="M369.866 122.755L181.546 231.481L416.588 638.586L604.908 529.859L369.866 122.755Z" fill="white"/>
<g filter="url(#filter10_d_415_2902)">
<path d="M407.934 264.656L256.304 352.199C252.937 354.143 251.78 358.442 253.72 361.802L317.489 472.253C319.429 475.613 323.731 476.761 327.097 474.817L478.727 387.273C482.094 385.33 483.25 381.03 481.311 377.671L417.542 267.22C415.602 263.86 411.3 262.712 407.934 264.656Z" fill="white"/>
</g>
<path d="M318.987 342.168L282.717 363.108C281.876 363.594 281.587 364.669 282.072 365.509L283.147 367.372C283.632 368.212 284.707 368.499 285.549 368.013L321.818 347.073C322.66 346.587 322.949 345.512 322.464 344.672L321.389 342.809C320.904 341.969 319.828 341.682 318.987 342.168Z" fill="#9380FC"/>
<path opacity="0.1" d="M351.583 341.877L290.741 377.005C289.899 377.491 289.61 378.565 290.095 379.405L291.17 381.268C291.655 382.108 292.731 382.395 293.572 381.909L354.415 346.782C355.257 346.296 355.546 345.221 355.061 344.381L353.985 342.518C353.5 341.678 352.425 341.391 351.583 341.877Z" fill="#9380FC"/>
<path d="M321.719 433.235C321.719 433.235 328.12 419.73 333.444 416.656C338.769 413.582 345.411 418.466 353.019 414.619C360.627 410.771 364.071 390.254 373.901 384.579C383.73 378.904 392.892 383.424 407.4 374.503C421.908 365.581 413.823 350.631 424.471 344.483C433.733 339.135 426.784 327.893 432.903 320.387" stroke="#6F56FB" stroke-width="4" stroke-linecap="round"/>
<path d="M539.914 461.545L389.046 548.649C385.679 550.593 384.522 554.892 386.462 558.252L436.959 645.715C438.899 649.075 443.201 650.223 446.567 648.279L597.435 561.176C600.802 559.232 601.959 554.933 600.019 551.573L549.522 464.109C547.582 460.75 543.28 459.602 539.914 461.545Z" fill="white"/>
<path d="M492.379 514.672L443.514 542.884C442.672 543.37 442.383 544.445 442.868 545.284L443.413 546.228C443.898 547.068 444.973 547.355 445.815 546.869L494.68 518.657C495.521 518.171 495.81 517.096 495.326 516.256L494.781 515.313C494.296 514.473 493.22 514.186 492.379 514.672Z" fill="#D5D9E0"/>
<path d="M479.315 538.155L450.417 554.84C449.575 555.326 449.286 556.401 449.771 557.24L450.316 558.184C450.8 559.024 451.876 559.311 452.718 558.825L481.616 542.141C482.458 541.655 482.747 540.58 482.262 539.74L481.717 538.796C481.232 537.956 480.157 537.669 479.315 538.155Z" fill="#D5D9E0"/>
<path opacity="0.1" d="M543.084 493.367L527.497 502.366C526.655 502.852 526.366 503.927 526.851 504.767L527.396 505.711C527.881 506.551 528.956 506.838 529.798 506.352L545.385 497.352C546.227 496.866 546.516 495.792 546.031 494.952L545.486 494.008C545.001 493.168 543.926 492.881 543.084 493.367Z" fill="#9380FC"/>
<path fill-rule="evenodd" clip-rule="evenodd" d="M432.479 574.938C438.728 571.33 440.875 563.35 437.274 557.114C433.674 550.878 425.689 548.747 419.441 552.355C413.192 555.962 411.045 563.942 414.645 570.179C418.246 576.415 426.23 578.545 432.479 574.938Z" fill="#6F56FB"/>
<path d="M514.62 553.195L465.755 581.407C464.914 581.893 464.625 582.968 465.11 583.808L465.654 584.752C466.139 585.591 467.215 585.878 468.056 585.393L516.921 557.18C517.763 556.694 518.052 555.62 517.567 554.78L517.022 553.836C516.538 552.996 515.462 552.709 514.62 553.195Z" fill="#D5D9E0"/>
<path d="M501.557 576.679L472.658 593.363C471.817 593.849 471.528 594.924 472.012 595.764L472.557 596.708C473.042 597.548 474.118 597.835 474.959 597.349L503.858 580.664C504.699 580.178 504.989 579.103 504.504 578.263L503.959 577.32C503.474 576.48 502.398 576.193 501.557 576.679Z" fill="#D5D9E0"/>
<path opacity="0.1" d="M565.326 531.891L549.739 540.891C548.897 541.377 548.608 542.452 549.093 543.291L549.638 544.235C550.123 545.075 551.198 545.362 552.04 544.876L567.627 535.876C568.469 535.391 568.758 534.316 568.273 533.476L567.728 532.532C567.243 531.692 566.168 531.405 565.326 531.891Z" fill="#9380FC"/>
<path fill-rule="evenodd" clip-rule="evenodd" d="M454.721 613.461C460.969 609.854 463.116 601.874 459.516 595.638C455.915 589.401 447.931 587.271 441.682 590.878C435.434 594.486 433.287 602.466 436.887 608.702C440.488 614.938 448.472 617.069 454.721 613.461Z" fill="#6F56FB"/>
<g filter="url(#filter11_i_415_2902)">
<path d="M267.22 189.224C266.569 188.096 266.957 186.652 268.087 185.999L286.803 175.194C287.933 174.542 289.377 174.927 290.029 176.055C290.68 177.184 290.292 178.627 289.162 179.28L270.446 190.085C269.316 190.738 267.872 190.352 267.22 189.224Z" fill="#161616"/>
</g>
<g filter="url(#filter12_f_415_2902)">
<path d="M268.526 186.76L287.242 175.955C287.951 175.545 288.858 175.787 289.267 176.495C289.676 177.203 289.432 178.11 288.723 178.519L270.007 189.325C269.298 189.734 268.391 189.492 267.982 188.784C267.573 188.076 267.817 187.169 268.526 186.76Z" stroke="black" stroke-opacity="0.32" stroke-width="2"/>
</g>
<path d="M268.307 186.38L287.022 175.574C287.942 175.043 289.118 175.357 289.648 176.275C290.178 177.194 289.862 178.369 288.942 178.9L270.227 189.705C269.306 190.236 268.131 189.922 267.601 189.004C267.071 188.086 267.386 186.911 268.307 186.38Z" stroke="url(#paint24_linear_415_2902)"/>
<path d="M294.707 173.354C293.404 171.098 294.182 168.21 296.442 166.905C298.704 165.599 301.592 166.37 302.895 168.627C304.198 170.883 303.421 173.77 301.16 175.076C298.899 176.381 296.01 175.611 294.707 173.354Z" fill="url(#paint25_radial_415_2902)"/>
<path d="M294.707 173.354C293.404 171.098 294.182 168.21 296.442 166.905C298.704 165.599 301.592 166.37 302.895 168.627C304.198 170.883 303.421 173.77 301.16 175.076C298.899 176.381 296.01 175.611 294.707 173.354Z" fill="url(#paint26_radial_415_2902)"/>
<path d="M300.849 169.808C300.197 168.68 298.753 168.295 297.622 168.948C296.492 169.6 296.103 171.044 296.755 172.172C297.406 173.3 298.851 173.686 299.981 173.033C301.111 172.381 301.5 170.937 300.849 169.808Z" fill="url(#paint27_linear_415_2902)"/>
<path d="M300.849 169.808C300.197 168.68 298.753 168.295 297.622 168.948C296.492 169.6 296.103 171.044 296.755 172.172C297.406 173.3 298.851 173.686 299.981 173.033C301.111 172.381 301.5 170.937 300.849 169.808Z" fill="url(#paint28_radial_415_2902)"/>
<path d="M300.849 169.808C300.197 168.68 298.753 168.295 297.622 168.948C296.492 169.6 296.103 171.044 296.755 172.172C297.406 173.3 298.851 173.686 299.981 173.033C301.111 172.381 301.5 170.937 300.849 169.808Z" fill="url(#paint29_radial_415_2902)"/>
<path d="M300.849 169.808C300.197 168.68 298.753 168.295 297.622 168.948C296.492 169.6 296.103 171.044 296.755 172.172C297.406 173.3 298.851 173.686 299.981 173.033C301.111 172.381 301.5 170.937 300.849 169.808Z" fill="url(#paint30_radial_415_2902)"/>
<path d="M300.849 169.808C300.197 168.68 298.753 168.295 297.622 168.948C296.492 169.6 296.103 171.044 296.755 172.172C297.406 173.3 298.851 173.686 299.981 173.033C301.111 172.381 301.5 170.937 300.849 169.808Z" fill="url(#paint31_radial_415_2902)"/>
<rect x="208.208" y="278.949" width="213.625" height="84.3255" rx="8" transform="rotate(-30 208.208 278.949)" fill="white"/>
<rect x="226.638" y="283.887" width="26.9841" height="3.37302" rx="1.68651" transform="rotate(-30 226.638 283.887)" fill="#9380FC"/>
<rect opacity="0.1" x="369.773" y="201.248" width="21.3625" height="3.37302" rx="1.68651" transform="rotate(-30 369.773 201.248)" fill="#9380FC"/>
<path d="M238.585 304.578L399.49 211.679" stroke="#EEF0F2" stroke-dasharray="4 4"/>
<path d="M249.828 324.052L410.734 231.153" stroke="#EEF0F2" stroke-dasharray="4 4"/>
<path d="M261.071 343.527L421.977 250.628" stroke="#EEF0F2" stroke-dasharray="4 4"/>
<path d="M261.071 343.527L264.677 315.479L280.038 296.549L296.38 270.886L317.917 268.838L344.902 261.047L364.168 242.134L392.667 253.269L405.812 245.68L411.463 230.732" stroke="url(#paint32_linear_415_2902)" stroke-width="4" stroke-linecap="round"/>
<path d="M268.22 311.811C269.186 313.484 268.613 315.623 266.94 316.588C265.267 317.554 263.128 316.981 262.163 315.308C261.197 313.635 261.77 311.497 263.443 310.531C265.116 309.565 267.255 310.138 268.22 311.811Z" fill="url(#paint33_linear_415_2902)" stroke="white" stroke-width="2"/>
<path d="M299.895 268.856C300.861 270.529 300.288 272.668 298.615 273.633C296.942 274.599 294.803 274.026 293.838 272.353C292.872 270.681 293.445 268.542 295.118 267.576C296.791 266.61 298.93 267.183 299.895 268.856Z" fill="url(#paint34_linear_415_2902)" stroke="white" stroke-width="2"/>
<path d="M347.407 258.952C348.372 260.625 347.799 262.764 346.126 263.73C344.454 264.695 342.315 264.122 341.349 262.45C340.383 260.777 340.956 258.638 342.629 257.672C344.302 256.706 346.441 257.279 347.407 258.952Z" fill="url(#paint35_linear_415_2902)" stroke="white" stroke-width="2"/>
<path d="M366.71 240.667C367.676 242.34 367.103 244.479 365.43 245.444C363.757 246.41 361.618 245.837 360.652 244.164C359.687 242.491 360.26 240.352 361.932 239.387C363.605 238.421 365.744 238.994 366.71 240.667Z" fill="url(#paint36_linear_415_2902)" stroke="white" stroke-width="2"/>
<path d="M396.042 250.996C397.008 252.668 396.435 254.807 394.762 255.773C393.089 256.739 390.95 256.166 389.985 254.493C389.019 252.82 389.592 250.681 391.265 249.715C392.937 248.75 395.076 249.323 396.042 250.996Z" fill="url(#paint37_linear_415_2902)" stroke="white" stroke-width="2"/>
<path d="M408.7 243.687C409.666 245.36 409.093 247.499 407.42 248.465C405.748 249.431 403.609 248.858 402.643 247.185C401.677 245.512 402.25 243.373 403.923 242.407C405.596 241.441 407.735 242.015 408.7 243.687Z" fill="url(#paint38_linear_415_2902)" stroke="white" stroke-width="2"/>
<path d="M414.763 227.204C415.729 228.877 415.156 231.016 413.483 231.982C411.81 232.948 409.671 232.374 408.706 230.702C407.74 229.029 408.313 226.89 409.986 225.924C411.658 224.958 413.797 225.532 414.763 227.204Z" fill="url(#paint39_linear_415_2902)" stroke="white" stroke-width="2"/>
</g>
</g>
<g clip-path="url(#clip1_415_2902)">
<path d="M399.989 178.46C399.989 157.695 399.989 147.312 404.028 139.381C407.58 132.405 413.248 126.733 420.22 123.178C428.146 119.137 438.521 119.137 459.272 119.137H595.437C616.188 119.137 626.562 119.137 634.488 123.178C641.46 126.733 647.128 132.405 650.681 139.381C654.719 147.312 654.719 157.695 654.719 178.46V253.541H655.788C656.181 253.541 656.501 253.86 656.501 254.254V314.861C656.501 315.254 656.181 315.574 655.788 315.574H654.719V582.814C654.719 603.579 654.719 613.961 650.681 621.892C647.128 628.869 641.46 634.541 634.488 638.096C626.562 642.137 616.188 642.137 595.437 642.137H459.272C438.521 642.137 428.146 642.137 420.22 638.096C413.248 634.541 407.58 628.869 404.028 621.892C399.989 613.961 399.989 603.579 399.989 582.814V328.052H398.921C398.527 328.052 398.208 327.732 398.208 327.338V288.836C398.208 288.442 398.527 288.123 398.921 288.123H399.989V279.21H398.921C398.527 279.21 398.208 278.891 398.208 278.497V239.994C398.208 239.6 398.527 239.281 398.921 239.281H399.989V222.525H398.921C398.527 222.525 398.208 222.206 398.208 221.812V202.56C398.208 202.166 398.527 201.847 398.921 201.847H399.989V178.46Z" fill="#ADAFA4"/>
<g style="mix-blend-mode:multiply">
<mask id="mask3_415_2902" style="mask-type:alpha" maskUnits="userSpaceOnUse" x="399" y="119" width="256" height="524">
<g style="mix-blend-mode:multiply">
<g style="mix-blend-mode:multiply">
<path d="M399.989 178.46C399.989 157.695 399.989 147.312 404.028 139.381C407.58 132.405 413.248 126.733 420.22 123.178C428.146 119.137 438.521 119.137 459.272 119.137H595.437C616.188 119.137 626.562 119.137 634.488 123.178C641.46 126.733 647.128 132.405 650.681 139.381C654.719 147.312 654.719 157.695 654.719 178.46V582.814C654.719 603.579 654.719 613.961 650.681 621.892C647.128 628.869 641.46 634.541 634.488 638.096C626.562 642.137 616.188 642.137 595.437 642.137H459.272C438.521 642.137 428.146 642.137 420.22 638.096C413.248 634.541 407.58 628.869 404.028 621.892C399.989 613.961 399.989 603.579 399.989 582.814V178.46Z" fill="black"/>
</g>
</g>
</mask>
<g mask="url(#mask3_415_2902)">
<g style="mix-blend-mode:multiply">
<g style="mix-blend-mode:multiply" filter="url(#filter13_i_415_2902)">
<g style="mix-blend-mode:multiply">
<path d="M399.989 178.46C399.989 157.695 399.989 147.312 404.028 139.381C407.58 132.405 413.248 126.733 420.22 123.178C428.146 119.137 438.521 119.137 459.272 119.137H595.437C616.188 119.137 626.562 119.137 634.488 123.178C641.46 126.733 647.128 132.405 650.681 139.381C654.719 147.312 654.719 157.695 654.719 178.46V582.814C654.719 603.579 654.719 613.961 650.681 621.892C647.128 628.869 641.46 634.541 634.488 638.096C626.562 642.137 616.188 642.137 595.437 642.137H459.272C438.521 642.137 428.146 642.137 420.22 638.096C413.248 634.541 407.58 628.869 404.028 621.892C399.989 613.961 399.989 603.579 399.989 582.814V178.46Z" fill="#EBEBEB"/>
</g>
</g>
<path style="mix-blend-mode:multiply" d="M404.621 163.701H398.564V168.692H404.621V163.701Z" fill="url(#paint40_linear_415_2902)"/>
<path style="mix-blend-mode:multiply" d="M404.621 594.721H398.564V599.712H404.621V594.721Z" fill="url(#paint41_linear_415_2902)"/>
<path style="mix-blend-mode:multiply" d="M656.144 163.701H650.088V168.692H656.144V163.701Z" fill="url(#paint42_linear_415_2902)"/>
<path style="mix-blend-mode:multiply" d="M656.144 594.721H650.088V599.712H656.144V594.721Z" fill="url(#paint43_linear_415_2902)"/>
<path style="mix-blend-mode:multiply" d="M600.567 122.702V116.641H595.579V122.702H600.567Z" fill="url(#paint44_linear_415_2902)"/>
<path style="mix-blend-mode:multiply" d="M450.579 643.563V637.502H445.591V643.563H450.579Z" fill="url(#paint45_linear_415_2902)"/>
</g>
<g style="mix-blend-mode:multiply">
<path d="M458.132 122.221H596.577C606.257 122.221 613.505 122.221 619.256 122.692C625.004 123.162 629.237 124.1 632.895 125.965C639.354 129.258 644.605 134.513 647.896 140.976C649.759 144.637 650.698 148.873 651.167 154.625C651.637 160.38 651.637 167.632 651.637 177.319V583.955C651.637 593.642 651.637 600.894 651.167 606.649C650.698 612.401 649.759 616.637 647.896 620.297C644.605 626.761 639.354 632.016 632.895 635.309C629.237 637.174 625.004 638.113 619.256 638.583C613.505 639.053 606.257 639.053 596.577 639.053H458.132C448.451 639.053 441.204 639.053 435.453 638.583C429.705 638.113 425.472 637.174 421.814 635.309C415.355 632.016 410.104 626.761 406.813 620.297C404.949 616.637 404.011 612.401 403.542 606.649C403.072 600.894 403.072 593.642 403.072 583.955V177.319C403.072 167.632 403.072 160.38 403.542 154.625C404.011 148.873 404.949 144.637 406.813 140.976C410.104 134.513 415.355 129.258 421.814 125.965C425.472 124.1 429.705 123.162 435.453 122.692C441.204 122.221 448.451 122.221 458.132 122.221Z" fill="black"/>
<path d="M458.132 122.221H596.577C606.257 122.221 613.505 122.221 619.256 122.692C625.004 123.162 629.237 124.1 632.895 125.965C639.354 129.258 644.605 134.513 647.896 140.976C649.759 144.637 650.698 148.873 651.167 154.625C651.637 160.38 651.637 167.632 651.637 177.319V583.955C651.637 593.642 651.637 600.894 651.167 606.649C650.698 612.401 649.759 616.637 647.896 620.297C644.605 626.761 639.354 632.016 632.895 635.309C629.237 637.174 625.004 638.113 619.256 638.583C613.505 639.053 606.257 639.053 596.577 639.053H458.132C448.451 639.053 441.204 639.053 435.453 638.583C429.705 638.113 425.472 637.174 421.814 635.309C415.355 632.016 410.104 626.761 406.813 620.297C404.949 616.637 404.011 612.401 403.542 606.649C403.072 600.894 403.072 593.642 403.072 583.955V177.319C403.072 167.632 403.072 160.38 403.542 154.625C404.011 148.873 404.949 144.637 406.813 140.976C410.104 134.513 415.355 129.258 421.814 125.965C425.472 124.1 429.705 123.162 435.453 122.692C441.204 122.221 448.451 122.221 458.132 122.221Z" stroke="url(#paint46_linear_415_2902)" stroke-width="0.5" style="mix-blend-mode:multiply"/>
</g>
</g>
</g>
<g style="mix-blend-mode:screen">
<mask id="mask4_415_2902" style="mask-type:alpha" maskUnits="userSpaceOnUse" x="399" y="119" width="256" height="524">
<g style="mix-blend-mode:screen">
<g style="mix-blend-mode:screen">
<path d="M399.989 178.46C399.989 157.695 399.989 147.312 404.028 139.381C407.58 132.405 413.248 126.733 420.22 123.178C428.146 119.137 438.521 119.137 459.272 119.137H595.437C616.188 119.137 626.562 119.137 634.488 123.178C641.46 126.733 647.128 132.405 650.681 139.381C654.719 147.312 654.719 157.695 654.719 178.46V582.814C654.719 603.579 654.719 613.961 650.681 621.892C647.128 628.869 641.46 634.541 634.488 638.096C626.562 642.137 616.188 642.137 595.437 642.137H459.272C438.521 642.137 428.146 642.137 420.22 638.096C413.248 634.541 407.58 628.869 404.028 621.892C399.989 613.961 399.989 603.579 399.989 582.814V178.46Z" fill="black"/>
</g>
</g>
</mask>
<g mask="url(#mask4_415_2902)">
<g style="mix-blend-mode:screen">
<g style="mix-blend-mode:screen" filter="url(#filter14_ii_415_2902)">
<g style="mix-blend-mode:screen">
<path d="M399.989 178.46C399.989 157.695 399.989 147.312 404.028 139.381C407.58 132.405 413.248 126.733 420.22 123.178C428.146 119.137 438.521 119.137 459.272 119.137H595.437C616.188 119.137 626.562 119.137 634.488 123.178C641.46 126.733 647.128 132.405 650.681 139.381C654.719 147.312 654.719 157.695 654.719 178.46V582.814C654.719 603.579 654.719 613.961 650.681 621.892C647.128 628.869 641.46 634.541 634.488 638.096C626.562 642.137 616.188 642.137 595.437 642.137H459.272C438.521 642.137 428.146 642.137 420.22 638.096C413.248 634.541 407.58 628.869 404.028 621.892C399.989 613.961 399.989 603.579 399.989 582.814V178.46Z" fill="#050505"/>
</g>
</g>
<path style="mix-blend-mode:screen" d="M459.272 120.066H595.437C605.828 120.066 613.564 120.067 619.697 120.568C625.818 121.068 630.257 122.063 634.067 124.006C640.864 127.471 646.39 133.001 649.854 139.803C651.795 143.616 652.789 148.058 653.29 154.184C653.79 160.32 653.791 168.062 653.791 178.46V582.814C653.791 593.212 653.79 600.954 653.29 607.09C652.789 613.215 651.795 617.658 649.854 621.47C646.39 628.272 640.864 633.802 634.067 637.268C630.257 639.211 625.818 640.206 619.697 640.706C613.564 641.207 605.828 641.208 595.437 641.208H459.272C448.881 641.208 441.144 641.207 435.012 640.706C428.891 640.206 424.452 639.211 420.641 637.268C413.844 633.802 408.318 628.272 404.855 621.47C402.914 617.658 401.92 613.215 401.419 607.09C400.918 600.954 400.918 593.212 400.918 582.814V178.46C400.918 168.062 400.918 160.32 401.419 154.184C401.92 148.058 402.914 143.616 404.855 139.803C408.318 133.001 413.844 127.471 420.641 124.006C424.452 122.063 428.891 121.068 435.012 120.568C441.144 120.067 448.881 120.066 459.272 120.066Z" stroke="url(#paint47_linear_415_2902)" stroke-width="2"/>
<path style="mix-blend-mode:screen" d="M404.621 163.701H398.564V168.692H404.621V163.701Z" fill="url(#paint48_linear_415_2902)"/>
<path style="mix-blend-mode:screen" d="M404.621 594.721H398.564V599.712H404.621V594.721Z" fill="url(#paint49_linear_415_2902)"/>
<path style="mix-blend-mode:screen" d="M656.144 163.701H650.088V168.692H656.144V163.701Z" fill="url(#paint50_linear_415_2902)"/>
<path style="mix-blend-mode:screen" d="M656.144 594.721H650.088V599.712H656.144V594.721Z" fill="url(#paint51_linear_415_2902)"/>
<path style="mix-blend-mode:screen" d="M600.567 122.702V116.641H595.579V122.702H600.567Z" fill="url(#paint52_linear_415_2902)"/>
<path style="mix-blend-mode:screen" d="M450.579 643.563V637.502H445.591V643.563H450.579Z" fill="url(#paint53_linear_415_2902)"/>
</g>
<g style="mix-blend-mode:screen">
<path d="M458.132 122.221H596.577C606.257 122.221 613.505 122.221 619.256 122.692C625.004 123.162 629.237 124.1 632.895 125.965C639.354 129.258 644.605 134.513 647.896 140.976C649.759 144.637 650.698 148.873 651.167 154.625C651.637 160.38 651.637 167.632 651.637 177.319V583.955C651.637 593.642 651.637 600.894 651.167 606.649C650.698 612.401 649.759 616.637 647.896 620.297C644.605 626.761 639.354 632.016 632.895 635.309C629.237 637.174 625.004 638.113 619.256 638.583C613.505 639.053 606.257 639.053 596.577 639.053H458.132C448.451 639.053 441.204 639.053 435.453 638.583C429.705 638.113 425.472 637.174 421.814 635.309C415.355 632.016 410.104 626.761 406.813 620.297C404.949 616.637 404.011 612.401 403.542 606.649C403.072 600.894 403.072 593.642 403.072 583.955V177.319C403.072 167.632 403.072 160.38 403.542 154.625C404.011 148.873 404.949 144.637 406.813 140.976C410.104 134.513 415.355 129.258 421.814 125.965C425.472 124.1 429.705 123.162 435.453 122.692C441.204 122.221 448.451 122.221 458.132 122.221Z" fill="black"/>
<path d="M458.132 122.221H596.577C606.257 122.221 613.505 122.221 619.256 122.692C625.004 123.162 629.237 124.1 632.895 125.965C639.354 129.258 644.605 134.513 647.896 140.976C649.759 144.637 650.698 148.873 651.167 154.625C651.637 160.38 651.637 167.632 651.637 177.319V583.955C651.637 593.642 651.637 600.894 651.167 606.649C650.698 612.401 649.759 616.637 647.896 620.297C644.605 626.761 639.354 632.016 632.895 635.309C629.237 637.174 625.004 638.113 619.256 638.583C613.505 639.053 606.257 639.053 596.577 639.053H458.132C448.451 639.053 441.204 639.053 435.453 638.583C429.705 638.113 425.472 637.174 421.814 635.309C415.355 632.016 410.104 626.761 406.813 620.297C404.949 616.637 404.011 612.401 403.542 606.649C403.072 600.894 403.072 593.642 403.072 583.955V177.319C403.072 167.632 403.072 160.38 403.542 154.625C404.011 148.873 404.949 144.637 406.813 140.976C410.104 134.513 415.355 129.258 421.814 125.965C425.472 124.1 429.705 123.162 435.453 122.692C441.204 122.221 448.451 122.221 458.132 122.221Z" stroke="url(#paint54_linear_415_2902)" stroke-width="0.5" style="mix-blend-mode:screen"/>
</g>
<g style="mix-blend-mode:screen">
<path d="M415.099 145.208C412.459 150.394 412.459 157.182 412.459 170.759V590.514C412.459 604.092 412.459 610.88 415.099 616.066C417.422 620.627 421.128 624.336 425.686 626.661C430.869 629.302 437.653 629.302 451.22 629.302H603.488C617.057 629.302 623.84 629.302 629.023 626.661C633.581 624.336 637.286 620.627 639.609 616.066C642.25 610.88 642.25 604.092 642.25 590.514V170.759C642.25 157.182 642.25 150.394 639.609 145.208C637.286 140.646 633.581 136.938 629.023 134.613C623.84 131.971 617.057 131.971 603.488 131.971H591.581C590.991 131.971 590.696 131.971 590.46 132.057C590.065 132.201 589.753 132.513 589.609 132.909C589.523 133.146 589.523 133.441 589.523 134.031C589.523 138.752 589.523 141.113 588.835 143.003C587.683 146.172 585.188 148.668 582.021 149.822C580.133 150.51 577.773 150.51 573.055 150.51H481.653C476.935 150.51 474.576 150.51 472.687 149.822C469.521 148.668 467.026 146.172 465.874 143.003C465.186 141.113 465.186 138.752 465.186 134.031C465.186 133.441 465.186 133.146 465.1 132.909C464.956 132.513 464.644 132.201 464.248 132.057C464.012 131.971 463.717 131.971 463.128 131.971H451.22C437.653 131.971 430.869 131.971 425.686 134.613C421.128 136.938 417.422 140.646 415.099 145.208Z" fill="black"/>
</g>
</g>
</g>
<mask id="mask5_415_2902" style="mask-type:alpha" maskUnits="userSpaceOnUse" x="412" y="131" width="231" height="499">
<path d="M415.099 145.208C412.459 150.394 412.459 157.182 412.459 170.759V590.514C412.459 604.092 412.459 610.88 415.099 616.066C417.422 620.627 421.128 624.336 425.686 626.661C430.869 629.302 437.652 629.302 451.22 629.302H603.488C617.056 629.302 623.84 629.302 629.022 626.661C633.58 624.336 637.286 620.627 639.609 616.066C642.25 610.88 642.25 604.092 642.25 590.514V170.759C642.25 157.182 642.25 150.394 639.609 145.208C637.286 140.646 633.58 136.938 629.022 134.613C623.84 131.971 617.056 131.971 603.488 131.971H591.581C590.991 131.971 590.696 131.971 590.46 132.057C590.065 132.201 589.753 132.513 589.609 132.909C589.523 133.146 589.523 133.441 589.523 134.031C589.523 138.752 589.523 141.113 588.835 143.003C587.683 146.172 585.188 148.668 582.021 149.822C580.133 150.51 577.773 150.51 573.055 150.51H481.653C476.935 150.51 474.576 150.51 472.687 149.822C469.52 148.668 467.026 146.172 465.873 143.003C465.186 141.113 465.186 138.752 465.186 134.031C465.186 133.441 465.186 133.146 465.1 132.909C464.956 132.513 464.644 132.201 464.248 132.057C464.012 131.971 463.717 131.971 463.127 131.971H451.22C437.652 131.971 430.869 131.971 425.686 134.613C421.128 136.938 417.422 140.646 415.099 145.208Z" fill="#161616"/>
</mask>
<g mask="url(#mask5_415_2902)">
<g clip-path="url(#clip2_415_2902)">
<rect x="381.292" y="66.0001" width="292" height="631" rx="48" fill="url(#paint55_linear_415_2902)"/>
<g opacity="0.2">
<path d="M573.679 233.764C573.679 245.715 568.917 257.177 560.441 265.628C551.964 274.079 540.467 278.827 528.479 278.827C516.49 278.827 504.993 274.079 496.516 265.628C488.04 257.177 483.278 245.715 483.278 233.764C483.278 221.813 488.04 210.351 496.516 201.9C504.993 193.449 516.49 188.701 528.479 188.701C540.467 188.701 551.964 193.449 560.441 201.9C568.917 210.351 573.679 221.813 573.679 233.764Z" stroke="white"/>
<path d="M651.036 348.786L651.036 348.786C656.139 337.795 661.292 326.835 666.494 315.906L666.495 315.905C668.492 311.72 670.132 307.163 671.413 302.233C673.091 295.77 672.958 288.033 672.466 281.346C671.9 273.727 668.537 266.472 662.503 261.229L662.831 260.852L662.503 261.229C655.87 255.464 647.239 252.606 638.149 251.519C629.061 250.432 619.55 251.121 611.197 252.418C606.374 253.169 602.835 255.869 600.554 260.579C600.554 260.579 600.554 260.579 600.554 260.579L600.104 260.361C595.231 270.437 589.456 279.207 582.781 286.671L651.036 348.786ZM651.036 348.786C643.759 364.481 635.858 379.855 627.982 395.052C618.742 412.858 608.667 430.566 597.756 448.176C593.266 455.413 588.371 462.626 583.441 469.89L583.017 470.514C574.146 483.583 564.428 494.633 553.865 503.67L553.864 503.671M651.036 348.786L553.864 503.671M462.461 268.953C462.461 268.954 462.461 268.954 462.461 268.954L462.9 268.714M462.461 268.953L535.668 309.286C518.298 310.258 501.755 307.119 488.017 297.349C477.644 289.977 469.272 280.432 462.9 268.714M462.461 268.953C462.461 268.953 462.461 268.953 462.461 268.953L462.9 268.714M462.461 268.953L459.417 262.056C460.6 264.408 461.761 266.628 462.9 268.714M553.864 503.671C550.569 506.5 546.591 508.687 541.921 510.225L542.077 510.7M553.864 503.671L542.077 510.7M542.077 510.7L541.921 510.225C536.322 512.07 529.715 511.868 523.79 511.405C515.331 510.732 508.317 506.585 501.87 500.663C491.546 491.173 482.857 480.701 474.586 468.897C464.922 455.087 456.042 441.617 447.795 427.069C440.829 414.762 434.061 402.645 427.655 390.511L427.213 390.744M542.077 510.7L427.213 390.744M427.213 390.744L427.655 390.511C419.883 375.791 412.538 361.33 405.573 347.045L405.573 347.045C399.965 335.553 394.582 324.187 389.425 312.948M427.213 390.744L389.425 312.948M389.425 312.948C384.389 301.968 382.874 290.646 384.875 278.967C387.359 264.475 397.279 257.006 409.447 253.563C421.639 250.114 436.03 250.733 447.248 252.419L447.249 252.419C450.295 252.874 452.49 253.914 454.282 255.528C456.087 257.153 457.511 259.386 458.97 262.281L389.425 312.948Z" stroke="white"/>
</g>
<g style="mix-blend-mode:overlay" opacity="0.4" filter="url(#filter15_f_415_2902)">
<circle cx="315.292" cy="264" r="315" fill="url(#paint56_radial_415_2902)"/>
</g>
<g style="mix-blend-mode:overlay" opacity="0.2" filter="url(#filter16_f_415_2902)">
<circle cx="544.292" cy="745" r="315" fill="#EBEBEB"/>
</g>
<path d="M540.899 327.659C540.899 330.272 539.858 332.778 538.005 334.626C536.151 336.473 533.638 337.511 531.017 337.511C528.397 337.511 525.883 336.473 524.03 334.626C522.177 332.778 521.136 330.272 521.136 327.659C521.136 325.046 522.177 322.541 524.03 320.693C525.883 318.846 528.397 317.808 531.017 317.808C533.638 317.808 536.151 318.846 538.005 320.693C539.858 322.541 540.899 325.046 540.899 327.659Z" fill="white"/>
<path d="M557.615 352.575C556.04 355.971 554.331 359.297 552.628 362.583C550.629 366.436 548.449 370.267 546.089 374.077C545.088 375.689 543.996 377.295 542.899 378.911C540.976 381.743 538.869 384.14 536.577 386.101C535.852 386.723 534.979 387.202 533.958 387.539C532.724 387.945 531.276 387.899 529.995 387.799C528.133 387.651 526.595 386.738 525.191 385.448C522.951 383.39 521.068 381.119 519.276 378.562C517.185 375.575 515.263 372.659 513.478 369.509C511.971 366.848 510.507 364.227 509.121 361.602C507.44 358.418 505.852 355.29 504.345 352.201C503.132 349.715 501.968 347.257 500.853 344.826C499.755 342.432 499.424 339.962 499.861 337.415C500.953 331.041 508.605 330.855 513.47 331.586C514.823 331.788 515.45 332.517 516.085 333.777C516.34 334.285 516.591 334.765 516.838 335.216C518.216 337.75 520.026 339.814 522.269 341.408C525.239 343.52 528.816 344.199 532.572 343.989C536.654 343.759 540.05 342.129 542.759 339.099C544.202 337.485 545.451 335.589 546.504 333.41C547.012 332.362 547.806 331.754 548.886 331.586C552.51 331.023 557.155 330.985 560.067 333.516C561.395 334.67 562.134 336.266 562.258 337.94C562.365 339.387 562.395 341.075 562.027 342.491C561.749 343.563 561.392 344.555 560.957 345.467C559.832 347.829 558.718 350.199 557.615 352.575Z" fill="white"/>
<path d="M568.934 392.981C568.934 394.398 568.37 395.757 567.365 396.759C566.36 397.761 564.997 398.324 563.576 398.324C562.155 398.324 560.792 397.761 559.787 396.759C558.782 395.757 558.217 394.398 558.217 392.981C558.217 391.564 558.782 390.206 559.787 389.204C560.792 388.202 562.155 387.639 563.576 387.639C564.997 387.639 566.36 388.202 567.365 389.204C568.37 390.206 568.934 391.564 568.934 392.981Z" fill="white"/>
<path d="M472.002 418.422C472.006 418.42 472.012 418.418 472.02 418.414C472.032 418.408 472.04 418.4 472.044 418.39C475.331 409.851 478.354 401.965 481.114 394.731C481.537 393.621 482.222 392.716 483.168 392.016C485.362 390.392 488.563 390.945 490.266 392.957C492.005 395.008 491.351 397.411 490.427 399.607C486.39 409.217 482.34 418.849 478.278 428.502C476.872 431.838 474.729 433.179 471.088 432.887C468.539 432.681 466.906 431.277 465.936 428.982C461.764 419.092 457.653 409.337 453.602 399.719C453.265 398.918 452.991 398.097 452.781 397.256C451.925 393.826 454.603 390.999 458.027 391.077C460.242 391.127 461.996 392.579 462.783 394.619C465.762 402.348 468.815 410.276 471.943 418.402C471.945 418.407 471.949 418.412 471.953 418.417C471.957 418.421 471.963 418.424 471.968 418.426C471.974 418.428 471.98 418.429 471.986 418.428C471.991 418.427 471.997 418.425 472.002 418.422Z" fill="white"/>
<path d="M507.284 418.64C509.228 414.383 511.11 410.257 512.929 406.261C513.919 404.087 515.88 402.507 518.39 402.963C520.005 403.257 521.197 404.121 521.965 405.554C522.849 407.202 522.367 408.926 521.608 410.548C518.402 417.402 515.214 424.213 512.044 430.983C510.674 433.906 509.334 436.736 507.683 439.329C506.374 441.383 504.58 443.526 502.471 444.651C499.941 446.001 496.81 445.39 495.643 442.581C495.018 441.071 495.408 439.259 496.42 438.023C496.982 437.337 497.605 436.596 498.288 435.8C499.767 434.078 500.995 432.219 501.971 430.222C501.98 430.203 501.985 430.182 501.985 430.162C501.985 430.141 501.98 430.12 501.971 430.102C498.961 423.662 495.92 417.163 492.847 410.606C492.232 409.299 491.648 407.623 492.176 406.255C492.99 404.15 494.521 403.029 496.769 402.893C499.23 402.743 500.788 404.679 501.706 406.704C503.53 410.722 505.343 414.701 507.147 418.64C507.193 418.739 507.238 418.739 507.284 418.64Z" fill="white"/>
<path d="M539.226 419.002C539.231 419.014 539.24 419.024 539.252 419.031C539.263 419.038 539.276 419.042 539.289 419.042C539.302 419.042 539.315 419.038 539.326 419.031C539.337 419.024 539.346 419.014 539.352 419.002C541.254 414.996 543.275 410.711 545.418 406.147C546.279 404.313 547.9 402.877 549.975 402.887C552.168 402.899 553.99 404.207 554.693 406.285C555.15 407.639 554.705 409.245 554.1 410.48C551.405 415.984 548.585 421.78 545.641 427.869C544.847 429.508 544.226 430.562 543.779 431.029C541.339 433.578 537.265 433.574 534.793 431.021C534.386 430.6 533.866 429.736 533.233 428.428C530.28 422.33 527.395 416.402 524.576 410.644C523.841 409.141 523.337 407.37 524.084 405.811C524.956 403.987 526.411 403.015 528.45 402.895C530.527 402.773 532.246 404.213 533.112 406.031C535.236 410.496 537.273 414.82 539.226 419.002Z" fill="white"/>
<path d="M568.494 427.707C568.492 430.756 567.006 432.899 563.72 432.923C560.449 432.947 558.818 430.923 558.812 427.779C558.8 421.164 558.801 414.535 558.816 407.891C558.818 406.93 559.037 405.849 559.493 405.002C560.589 402.967 563.172 402.553 565.295 403.085C567.679 403.682 568.494 405.863 568.496 408.081C568.499 414.745 568.498 421.287 568.494 427.707Z" fill="white"/>
<path d="M587.486 424.621C585.775 426.714 584.085 428.782 582.417 430.825C580.627 433.013 578.01 433.666 575.584 431.88C574.678 431.211 574.059 430.298 573.728 429.141C573.224 427.372 574.11 425.776 575.251 424.463C577.14 422.29 578.997 420.152 580.82 418.049C580.871 417.991 580.871 417.932 580.82 417.873C578.738 415.49 576.814 413.276 575.048 411.229C574.188 410.234 573.287 408.68 573.556 407.302C574.437 402.803 579.41 401.289 582.447 405.018C584.102 407.051 585.794 409.122 587.522 411.231C587.529 411.239 587.538 411.246 587.547 411.25C587.557 411.254 587.567 411.257 587.578 411.257C587.588 411.257 587.599 411.254 587.608 411.25C587.618 411.246 587.626 411.239 587.633 411.231C589.328 409.151 591.05 407.048 592.799 404.922C594.528 402.817 597.408 402.118 599.653 403.956C601.204 405.23 602.164 407.423 601.292 409.361C600.996 410.02 600.635 410.599 600.21 411.097C598.43 413.175 596.471 415.434 594.331 417.873C594.28 417.932 594.28 417.99 594.331 418.047C596.23 420.23 598.105 422.392 599.957 424.533C600.802 425.51 601.587 426.79 601.571 428.099C601.539 430.965 598.587 433.452 595.769 432.819C594.323 432.495 593.305 431.549 592.375 430.396C590.826 428.478 589.254 426.553 587.661 424.621C587.603 424.55 587.545 424.55 587.486 424.621Z" fill="white"/>
</g>
<g filter="url(#filter17_i_415_2902)">
<path d="M513.638 138.745C513.638 137.367 514.754 136.249 516.132 136.249H538.933C540.31 136.249 541.427 137.367 541.427 138.745C541.427 140.123 540.31 141.241 538.933 141.241H516.132C514.754 141.241 513.638 140.123 513.638 138.745Z" fill="#161616"/>
</g>
<g filter="url(#filter18_f_415_2902)">
<path d="M516.132 137.178H538.933C539.797 137.178 540.498 137.88 540.498 138.745C540.498 139.61 539.797 140.312 538.933 140.312H516.132C515.268 140.312 514.567 139.61 514.567 138.745C514.567 137.88 515.268 137.178 516.132 137.178Z" stroke="black" stroke-opacity="0.32" stroke-width="2"/>
</g>
</g>
</g>
<defs>
<filter id="filter0_i_415_2902" x="177.506" y="119.162" width="430.584" height="523.14" filterUnits="userSpaceOnUse" color-interpolation-filters="sRGB">
<feFlood flood-opacity="0" result="BackgroundImageFix"/>
<feBlend mode="normal" in="SourceGraphic" in2="BackgroundImageFix" result="shape"/>
<feColorMatrix in="SourceAlpha" type="matrix" values="0 0 0 0 0 0 0 0 0 0 0 0 0 0 0 0 0 0 127 0" result="hardAlpha"/>
<feOffset/>
<feGaussianBlur stdDeviation="8"/>
<feComposite in2="hardAlpha" operator="arithmetic" k2="-1" k3="1"/>
<feColorMatrix type="matrix" values="0 0 0 0 0 0 0 0 0 0 0 0 0 0 0 0 0 0 0.32 0"/>
<feBlend mode="normal" in2="shape" result="effect1_innerShadow_415_2902"/>
</filter>
<filter id="filter1_ii_415_2902" x="202.544" y="292.735" width="10.9877" height="21.5235" filterUnits="userSpaceOnUse" color-interpolation-filters="sRGB">
<feFlood flood-opacity="0" result="BackgroundImageFix"/>
<feBlend mode="normal" in="SourceGraphic" in2="BackgroundImageFix" result="shape"/>
<feColorMatrix in="SourceAlpha" type="matrix" values="0 0 0 0 0 0 0 0 0 0 0 0 0 0 0 0 0 0 127 0" result="hardAlpha"/>
<feOffset dy="4"/>
<feGaussianBlur stdDeviation="1"/>
<feComposite in2="hardAlpha" operator="arithmetic" k2="-1" k3="1"/>
<feColorMatrix type="matrix" values="0 0 0 0 1 0 0 0 0 1 0 0 0 0 1 0 0 0 0.64 0"/>
<feBlend mode="normal" in2="shape" result="effect1_innerShadow_415_2902"/>
<feColorMatrix in="SourceAlpha" type="matrix" values="0 0 0 0 0 0 0 0 0 0 0 0 0 0 0 0 0 0 127 0" result="hardAlpha"/>
<feOffset dy="-4"/>
<feGaussianBlur stdDeviation="1"/>
<feComposite in2="hardAlpha" operator="arithmetic" k2="-1" k3="1"/>
<feColorMatrix type="matrix" values="0 0 0 0 1 0 0 0 0 1 0 0 0 0 1 0 0 0 0.64 0"/>
<feBlend mode="normal" in2="effect1_innerShadow_415_2902" result="effect2_innerShadow_415_2902"/>
</filter>
<filter id="filter2_ii_415_2902" x="220.236" y="323.377" width="20.0863" height="37.2823" filterUnits="userSpaceOnUse" color-interpolation-filters="sRGB">
<feFlood flood-opacity="0" result="BackgroundImageFix"/>
<feBlend mode="normal" in="SourceGraphic" in2="BackgroundImageFix" result="shape"/>
<feColorMatrix in="SourceAlpha" type="matrix" values="0 0 0 0 0 0 0 0 0 0 0 0 0 0 0 0 0 0 127 0" result="hardAlpha"/>
<feOffset dy="4"/>
<feGaussianBlur stdDeviation="1"/>
<feComposite in2="hardAlpha" operator="arithmetic" k2="-1" k3="1"/>
<feColorMatrix type="matrix" values="0 0 0 0 1 0 0 0 0 1 0 0 0 0 1 0 0 0 0.64 0"/>
<feBlend mode="normal" in2="shape" result="effect1_innerShadow_415_2902"/>
<feColorMatrix in="SourceAlpha" type="matrix" values="0 0 0 0 0 0 0 0 0 0 0 0 0 0 0 0 0 0 127 0" result="hardAlpha"/>
<feOffset dy="-4"/>
<feGaussianBlur stdDeviation="1"/>
<feComposite in2="hardAlpha" operator="arithmetic" k2="-1" k3="1"/>
<feColorMatrix type="matrix" values="0 0 0 0 1 0 0 0 0 1 0 0 0 0 1 0 0 0 0.64 0"/>
<feBlend mode="normal" in2="effect1_innerShadow_415_2902" result="effect2_innerShadow_415_2902"/>
</filter>
<filter id="filter3_ii_415_2902" x="437.273" y="213.74" width="30.5323" height="55.3759" filterUnits="userSpaceOnUse" color-interpolation-filters="sRGB">
<feFlood flood-opacity="0" result="BackgroundImageFix"/>
<feBlend mode="normal" in="SourceGraphic" in2="BackgroundImageFix" result="shape"/>
<feColorMatrix in="SourceAlpha" type="matrix" values="0 0 0 0 0 0 0 0 0 0 0 0 0 0 0 0 0 0 127 0" result="hardAlpha"/>
<feOffset dy="4"/>
<feGaussianBlur stdDeviation="1"/>
<feComposite in2="hardAlpha" operator="arithmetic" k2="-1" k3="1"/>
<feColorMatrix type="matrix" values="0 0 0 0 1 0 0 0 0 1 0 0 0 0 1 0 0 0 0.64 0"/>
<feBlend mode="normal" in2="shape" result="effect1_innerShadow_415_2902"/>
<feColorMatrix in="SourceAlpha" type="matrix" values="0 0 0 0 0 0 0 0 0 0 0 0 0 0 0 0 0 0 127 0" result="hardAlpha"/>
<feOffset dy="-4"/>
<feGaussianBlur stdDeviation="1"/>
<feComposite in2="hardAlpha" operator="arithmetic" k2="-1" k3="1"/>
<feColorMatrix type="matrix" values="0 0 0 0 1 0 0 0 0 1 0 0 0 0 1 0 0 0 0.64 0"/>
<feBlend mode="normal" in2="effect1_innerShadow_415_2902" result="effect2_innerShadow_415_2902"/>
</filter>
<filter id="filter4_ii_415_2902" x="243.318" y="363.358" width="20.0862" height="37.2823" filterUnits="userSpaceOnUse" color-interpolation-filters="sRGB">
<feFlood flood-opacity="0" result="BackgroundImageFix"/>
<feBlend mode="normal" in="SourceGraphic" in2="BackgroundImageFix" result="shape"/>
<feColorMatrix in="SourceAlpha" type="matrix" values="0 0 0 0 0 0 0 0 0 0 0 0 0 0 0 0 0 0 127 0" result="hardAlpha"/>
<feOffset dy="4"/>
<feGaussianBlur stdDeviation="1"/>
<feComposite in2="hardAlpha" operator="arithmetic" k2="-1" k3="1"/>
<feColorMatrix type="matrix" values="0 0 0 0 1 0 0 0 0 1 0 0 0 0 1 0 0 0 0.64 0"/>
<feBlend mode="normal" in2="shape" result="effect1_innerShadow_415_2902"/>
<feColorMatrix in="SourceAlpha" type="matrix" values="0 0 0 0 0 0 0 0 0 0 0 0 0 0 0 0 0 0 127 0" result="hardAlpha"/>
<feOffset dy="-4"/>
<feGaussianBlur stdDeviation="1"/>
<feComposite in2="hardAlpha" operator="arithmetic" k2="-1" k3="1"/>
<feColorMatrix type="matrix" values="0 0 0 0 1 0 0 0 0 1 0 0 0 0 1 0 0 0 0.64 0"/>
<feBlend mode="normal" in2="effect1_innerShadow_415_2902" result="effect2_innerShadow_415_2902"/>
</filter>
<filter id="filter5_ii_415_2902" x="177.506" y="119.162" width="430.584" height="523.14" filterUnits="userSpaceOnUse" color-interpolation-filters="sRGB">
<feFlood flood-opacity="0" result="BackgroundImageFix"/>
<feBlend mode="normal" in="SourceGraphic" in2="BackgroundImageFix" result="shape"/>
<feColorMatrix in="SourceAlpha" type="matrix" values="0 0 0 0 0 0 0 0 0 0 0 0 0 0 0 0 0 0 127 0" result="hardAlpha"/>
<feOffset/>
<feGaussianBlur stdDeviation="5"/>
<feComposite in2="hardAlpha" operator="arithmetic" k2="-1" k3="1"/>
<feColorMatrix type="matrix" values="0 0 0 0 1 0 0 0 0 1 0 0 0 0 1 0 0 0 0.88 0"/>
<feBlend mode="normal" in2="shape" result="effect1_innerShadow_415_2902"/>
<feColorMatrix in="SourceAlpha" type="matrix" values="0 0 0 0 0 0 0 0 0 0 0 0 0 0 0 0 0 0 127 0" result="hardAlpha"/>
<feOffset/>
<feGaussianBlur stdDeviation="2.5"/>
<feComposite in2="hardAlpha" operator="arithmetic" k2="-1" k3="1"/>
<feColorMatrix type="matrix" values="0 0 0 0 0 0 0 0 0 0 0 0 0 0 0 0 0 0 1 0"/>
<feBlend mode="normal" in2="effect1_innerShadow_415_2902" result="effect2_innerShadow_415_2902"/>
</filter>
<filter id="filter6_iiii_415_2902" x="202.544" y="292.735" width="10.9877" height="21.5235" filterUnits="userSpaceOnUse" color-interpolation-filters="sRGB">
<feFlood flood-opacity="0" result="BackgroundImageFix"/>
<feBlend mode="normal" in="SourceGraphic" in2="BackgroundImageFix" result="shape"/>
<feColorMatrix in="SourceAlpha" type="matrix" values="0 0 0 0 0 0 0 0 0 0 0 0 0 0 0 0 0 0 127 0" result="hardAlpha"/>
<feOffset dy="4"/>
<feGaussianBlur stdDeviation="1"/>
<feComposite in2="hardAlpha" operator="arithmetic" k2="-1" k3="1"/>
<feColorMatrix type="matrix" values="0 0 0 0 1 0 0 0 0 1 0 0 0 0 1 0 0 0 0.08 0"/>
<feBlend mode="normal" in2="shape" result="effect1_innerShadow_415_2902"/>
<feColorMatrix in="SourceAlpha" type="matrix" values="0 0 0 0 0 0 0 0 0 0 0 0 0 0 0 0 0 0 127 0" result="hardAlpha"/>
<feOffset dy="-4"/>
<feGaussianBlur stdDeviation="1"/>
<feComposite in2="hardAlpha" operator="arithmetic" k2="-1" k3="1"/>
<feColorMatrix type="matrix" values="0 0 0 0 1 0 0 0 0 1 0 0 0 0 1 0 0 0 0.08 0"/>
<feBlend mode="normal" in2="effect1_innerShadow_415_2902" result="effect2_innerShadow_415_2902"/>
<feColorMatrix in="SourceAlpha" type="matrix" values="0 0 0 0 0 0 0 0 0 0 0 0 0 0 0 0 0 0 127 0" result="hardAlpha"/>
<feOffset dy="1"/>
<feGaussianBlur stdDeviation="0.5"/>
<feComposite in2="hardAlpha" operator="arithmetic" k2="-1" k3="1"/>
<feColorMatrix type="matrix" values="0 0 0 0 1 0 0 0 0 1 0 0 0 0 1 0 0 0 0.32 0"/>
<feBlend mode="normal" in2="effect2_innerShadow_415_2902" result="effect3_innerShadow_415_2902"/>
<feColorMatrix in="SourceAlpha" type="matrix" values="0 0 0 0 0 0 0 0 0 0 0 0 0 0 0 0 0 0 127 0" result="hardAlpha"/>
<feOffset dy="-1"/>
<feGaussianBlur stdDeviation="0.5"/>
<feComposite in2="hardAlpha" operator="arithmetic" k2="-1" k3="1"/>
<feColorMatrix type="matrix" values="0 0 0 0 1 0 0 0 0 1 0 0 0 0 1 0 0 0 0.32 0"/>
<feBlend mode="normal" in2="effect3_innerShadow_415_2902" result="effect4_innerShadow_415_2902"/>
</filter>
<filter id="filter7_iiii_415_2902" x="220.236" y="323.377" width="20.0863" height="37.2823" filterUnits="userSpaceOnUse" color-interpolation-filters="sRGB">
<feFlood flood-opacity="0" result="BackgroundImageFix"/>
<feBlend mode="normal" in="SourceGraphic" in2="BackgroundImageFix" result="shape"/>
<feColorMatrix in="SourceAlpha" type="matrix" values="0 0 0 0 0 0 0 0 0 0 0 0 0 0 0 0 0 0 127 0" result="hardAlpha"/>
<feOffset dy="4"/>
<feGaussianBlur stdDeviation="1"/>
<feComposite in2="hardAlpha" operator="arithmetic" k2="-1" k3="1"/>
<feColorMatrix type="matrix" values="0 0 0 0 1 0 0 0 0 1 0 0 0 0 1 0 0 0 0.08 0"/>
<feBlend mode="normal" in2="shape" result="effect1_innerShadow_415_2902"/>
<feColorMatrix in="SourceAlpha" type="matrix" values="0 0 0 0 0 0 0 0 0 0 0 0 0 0 0 0 0 0 127 0" result="hardAlpha"/>
<feOffset dy="-4"/>
<feGaussianBlur stdDeviation="1"/>
<feComposite in2="hardAlpha" operator="arithmetic" k2="-1" k3="1"/>
<feColorMatrix type="matrix" values="0 0 0 0 1 0 0 0 0 1 0 0 0 0 1 0 0 0 0.08 0"/>
<feBlend mode="normal" in2="effect1_innerShadow_415_2902" result="effect2_innerShadow_415_2902"/>
<feColorMatrix in="SourceAlpha" type="matrix" values="0 0 0 0 0 0 0 0 0 0 0 0 0 0 0 0 0 0 127 0" result="hardAlpha"/>
<feOffset dy="1"/>
<feGaussianBlur stdDeviation="0.5"/>
<feComposite in2="hardAlpha" operator="arithmetic" k2="-1" k3="1"/>
<feColorMatrix type="matrix" values="0 0 0 0 1 0 0 0 0 1 0 0 0 0 1 0 0 0 0.32 0"/>
<feBlend mode="normal" in2="effect2_innerShadow_415_2902" result="effect3_innerShadow_415_2902"/>
<feColorMatrix in="SourceAlpha" type="matrix" values="0 0 0 0 0 0 0 0 0 0 0 0 0 0 0 0 0 0 127 0" result="hardAlpha"/>
<feOffset dy="-1"/>
<feGaussianBlur stdDeviation="0.5"/>
<feComposite in2="hardAlpha" operator="arithmetic" k2="-1" k3="1"/>
<feColorMatrix type="matrix" values="0 0 0 0 1 0 0 0 0 1 0 0 0 0 1 0 0 0 0.32 0"/>
<feBlend mode="normal" in2="effect3_innerShadow_415_2902" result="effect4_innerShadow_415_2902"/>
</filter>
<filter id="filter8_iiii_415_2902" x="437.273" y="213.74" width="30.5323" height="55.3759" filterUnits="userSpaceOnUse" color-interpolation-filters="sRGB">
<feFlood flood-opacity="0" result="BackgroundImageFix"/>
<feBlend mode="normal" in="SourceGraphic" in2="BackgroundImageFix" result="shape"/>
<feColorMatrix in="SourceAlpha" type="matrix" values="0 0 0 0 0 0 0 0 0 0 0 0 0 0 0 0 0 0 127 0" result="hardAlpha"/>
<feOffset dy="4"/>
<feGaussianBlur stdDeviation="1"/>
<feComposite in2="hardAlpha" operator="arithmetic" k2="-1" k3="1"/>
<feColorMatrix type="matrix" values="0 0 0 0 1 0 0 0 0 1 0 0 0 0 1 0 0 0 0.08 0"/>
<feBlend mode="normal" in2="shape" result="effect1_innerShadow_415_2902"/>
<feColorMatrix in="SourceAlpha" type="matrix" values="0 0 0 0 0 0 0 0 0 0 0 0 0 0 0 0 0 0 127 0" result="hardAlpha"/>
<feOffset dy="-4"/>
<feGaussianBlur stdDeviation="1"/>
<feComposite in2="hardAlpha" operator="arithmetic" k2="-1" k3="1"/>
<feColorMatrix type="matrix" values="0 0 0 0 1 0 0 0 0 1 0 0 0 0 1 0 0 0 0.08 0"/>
<feBlend mode="normal" in2="effect1_innerShadow_415_2902" result="effect2_innerShadow_415_2902"/>
<feColorMatrix in="SourceAlpha" type="matrix" values="0 0 0 0 0 0 0 0 0 0 0 0 0 0 0 0 0 0 127 0" result="hardAlpha"/>
<feOffset dy="1"/>
<feGaussianBlur stdDeviation="0.5"/>
<feComposite in2="hardAlpha" operator="arithmetic" k2="-1" k3="1"/>
<feColorMatrix type="matrix" values="0 0 0 0 1 0 0 0 0 1 0 0 0 0 1 0 0 0 0.32 0"/>
<feBlend mode="normal" in2="effect2_innerShadow_415_2902" result="effect3_innerShadow_415_2902"/>
<feColorMatrix in="SourceAlpha" type="matrix" values="0 0 0 0 0 0 0 0 0 0 0 0 0 0 0 0 0 0 127 0" result="hardAlpha"/>
<feOffset dy="-1"/>
<feGaussianBlur stdDeviation="0.5"/>
<feComposite in2="hardAlpha" operator="arithmetic" k2="-1" k3="1"/>
<feColorMatrix type="matrix" values="0 0 0 0 1 0 0 0 0 1 0 0 0 0 1 0 0 0 0.32 0"/>
<feBlend mode="normal" in2="effect3_innerShadow_415_2902" result="effect4_innerShadow_415_2902"/>
</filter>
<filter id="filter9_iiii_415_2902" x="243.318" y="363.358" width="20.0862" height="37.2823" filterUnits="userSpaceOnUse" color-interpolation-filters="sRGB">
<feFlood flood-opacity="0" result="BackgroundImageFix"/>
<feBlend mode="normal" in="SourceGraphic" in2="BackgroundImageFix" result="shape"/>
<feColorMatrix in="SourceAlpha" type="matrix" values="0 0 0 0 0 0 0 0 0 0 0 0 0 0 0 0 0 0 127 0" result="hardAlpha"/>
<feOffset dy="4"/>
<feGaussianBlur stdDeviation="1"/>
<feComposite in2="hardAlpha" operator="arithmetic" k2="-1" k3="1"/>
<feColorMatrix type="matrix" values="0 0 0 0 1 0 0 0 0 1 0 0 0 0 1 0 0 0 0.08 0"/>
<feBlend mode="normal" in2="shape" result="effect1_innerShadow_415_2902"/>
<feColorMatrix in="SourceAlpha" type="matrix" values="0 0 0 0 0 0 0 0 0 0 0 0 0 0 0 0 0 0 127 0" result="hardAlpha"/>
<feOffset dy="-4"/>
<feGaussianBlur stdDeviation="1"/>
<feComposite in2="hardAlpha" operator="arithmetic" k2="-1" k3="1"/>
<feColorMatrix type="matrix" values="0 0 0 0 1 0 0 0 0 1 0 0 0 0 1 0 0 0 0.08 0"/>
<feBlend mode="normal" in2="effect1_innerShadow_415_2902" result="effect2_innerShadow_415_2902"/>
<feColorMatrix in="SourceAlpha" type="matrix" values="0 0 0 0 0 0 0 0 0 0 0 0 0 0 0 0 0 0 127 0" result="hardAlpha"/>
<feOffset dy="1"/>
<feGaussianBlur stdDeviation="0.5"/>
<feComposite in2="hardAlpha" operator="arithmetic" k2="-1" k3="1"/>
<feColorMatrix type="matrix" values="0 0 0 0 1 0 0 0 0 1 0 0 0 0 1 0 0 0 0.32 0"/>
<feBlend mode="normal" in2="effect2_innerShadow_415_2902" result="effect3_innerShadow_415_2902"/>
<feColorMatrix in="SourceAlpha" type="matrix" values="0 0 0 0 0 0 0 0 0 0 0 0 0 0 0 0 0 0 127 0" result="hardAlpha"/>
<feOffset dy="-1"/>
<feGaussianBlur stdDeviation="0.5"/>
<feComposite in2="hardAlpha" operator="arithmetic" k2="-1" k3="1"/>
<feColorMatrix type="matrix" values="0 0 0 0 1 0 0 0 0 1 0 0 0 0 1 0 0 0 0.32 0"/>
<feBlend mode="normal" in2="effect3_innerShadow_415_2902" result="effect4_innerShadow_415_2902"/>
</filter>
<filter id="filter10_d_415_2902" x="234.78" y="263.71" width="265.472" height="250.053" filterUnits="userSpaceOnUse" color-interpolation-filters="sRGB">
<feFlood flood-opacity="0" result="BackgroundImageFix"/>
<feColorMatrix in="SourceAlpha" type="matrix" values="0 0 0 0 0 0 0 0 0 0 0 0 0 0 0 0 0 0 127 0" result="hardAlpha"/>
<feOffset dy="20"/>
<feGaussianBlur stdDeviation="9"/>
<feColorMatrix type="matrix" values="0 0 0 0 0 0 0 0 0 0.136752 0 0 0 0 0.333333 0 0 0 0.03 0"/>
<feBlend mode="normal" in2="BackgroundImageFix" result="effect1_dropShadow_415_2902"/>
<feBlend mode="normal" in="SourceGraphic" in2="effect1_dropShadow_415_2902" result="shape"/>
</filter>
<filter id="filter11_i_415_2902" x="266.904" y="174.877" width="23.4404" height="15.526" filterUnits="userSpaceOnUse" color-interpolation-filters="sRGB">
<feFlood flood-opacity="0" result="BackgroundImageFix"/>
<feBlend mode="normal" in="SourceGraphic" in2="BackgroundImageFix" result="shape"/>
<feColorMatrix in="SourceAlpha" type="matrix" values="0 0 0 0 0 0 0 0 0 0 0 0 0 0 0 0 0 0 127 0" result="hardAlpha"/>
<feOffset/>
<feGaussianBlur stdDeviation="4"/>
<feComposite in2="hardAlpha" operator="arithmetic" k2="-1" k3="1"/>
<feColorMatrix type="matrix" values="0 0 0 0 0 0 0 0 0 0 0 0 0 0 0 0 0 0 0.48 0"/>
<feBlend mode="normal" in2="shape" result="effect1_innerShadow_415_2902"/>
</filter>
<filter id="filter12_f_415_2902" x="265.784" y="173.755" width="25.6816" height="17.7688" filterUnits="userSpaceOnUse" color-interpolation-filters="sRGB">
<feFlood flood-opacity="0" result="BackgroundImageFix"/>
<feBlend mode="normal" in="SourceGraphic" in2="BackgroundImageFix" result="shape"/>
<feGaussianBlur stdDeviation="0.5" result="effect1_foregroundBlur_415_2902"/>
</filter>
<filter id="filter13_i_415_2902" x="399.989" y="119.137" width="254.73" height="523" filterUnits="userSpaceOnUse" color-interpolation-filters="sRGB">
<feFlood flood-opacity="0" result="BackgroundImageFix"/>
<feBlend mode="normal" in="SourceGraphic" in2="BackgroundImageFix" result="shape"/>
<feColorMatrix in="SourceAlpha" type="matrix" values="0 0 0 0 0 0 0 0 0 0 0 0 0 0 0 0 0 0 127 0" result="hardAlpha"/>
<feOffset/>
<feGaussianBlur stdDeviation="8"/>
<feComposite in2="hardAlpha" operator="arithmetic" k2="-1" k3="1"/>
<feColorMatrix type="matrix" values="0 0 0 0 0 0 0 0 0 0 0 0 0 0 0 0 0 0 0.32 0"/>
<feBlend mode="normal" in2="shape" result="effect1_innerShadow_415_2902"/>
</filter>
<filter id="filter14_ii_415_2902" x="399.989" y="119.137" width="254.73" height="523" filterUnits="userSpaceOnUse" color-interpolation-filters="sRGB">
<feFlood flood-opacity="0" result="BackgroundImageFix"/>
<feBlend mode="normal" in="SourceGraphic" in2="BackgroundImageFix" result="shape"/>
<feColorMatrix in="SourceAlpha" type="matrix" values="0 0 0 0 0 0 0 0 0 0 0 0 0 0 0 0 0 0 127 0" result="hardAlpha"/>
<feOffset/>
<feGaussianBlur stdDeviation="5"/>
<feComposite in2="hardAlpha" operator="arithmetic" k2="-1" k3="1"/>
<feColorMatrix type="matrix" values="0 0 0 0 1 0 0 0 0 1 0 0 0 0 1 0 0 0 0.88 0"/>
<feBlend mode="normal" in2="shape" result="effect1_innerShadow_415_2902"/>
<feColorMatrix in="SourceAlpha" type="matrix" values="0 0 0 0 0 0 0 0 0 0 0 0 0 0 0 0 0 0 127 0" result="hardAlpha"/>
<feOffset/>
<feGaussianBlur stdDeviation="2.5"/>
<feComposite in2="hardAlpha" operator="arithmetic" k2="-1" k3="1"/>
<feColorMatrix type="matrix" values="0 0 0 0 0 0 0 0 0 0 0 0 0 0 0 0 0 0 1 0"/>
<feBlend mode="normal" in2="effect1_innerShadow_415_2902" result="effect2_innerShadow_415_2902"/>
</filter>
<filter id="filter15_f_415_2902" x="-81.2566" y="-132.548" width="793.097" height="793.097" filterUnits="userSpaceOnUse" color-interpolation-filters="sRGB">
<feFlood flood-opacity="0" result="BackgroundImageFix"/>
<feBlend mode="normal" in="SourceGraphic" in2="BackgroundImageFix" result="shape"/>
<feGaussianBlur stdDeviation="40.7742" result="effect1_foregroundBlur_415_2902"/>
</filter>
<filter id="filter16_f_415_2902" x="147.743" y="348.452" width="793.097" height="793.097" filterUnits="userSpaceOnUse" color-interpolation-filters="sRGB">
<feFlood flood-opacity="0" result="BackgroundImageFix"/>
<feBlend mode="normal" in="SourceGraphic" in2="BackgroundImageFix" result="shape"/>
<feGaussianBlur stdDeviation="40.7742" result="effect1_foregroundBlur_415_2902"/>
</filter>
<filter id="filter17_i_415_2902" x="513.638" y="136.249" width="27.7882" height="4.99115" filterUnits="userSpaceOnUse" color-interpolation-filters="sRGB">
<feFlood flood-opacity="0" result="BackgroundImageFix"/>
<feBlend mode="normal" in="SourceGraphic" in2="BackgroundImageFix" result="shape"/>
<feColorMatrix in="SourceAlpha" type="matrix" values="0 0 0 0 0 0 0 0 0 0 0 0 0 0 0 0 0 0 127 0" result="hardAlpha"/>
<feOffset/>
<feGaussianBlur stdDeviation="4"/>
<feComposite in2="hardAlpha" operator="arithmetic" k2="-1" k3="1"/>
<feColorMatrix type="matrix" values="0 0 0 0 0 0 0 0 0 0 0 0 0 0 0 0 0 0 0.48 0"/>
<feBlend mode="normal" in2="shape" result="effect1_innerShadow_415_2902"/>
</filter>
<filter id="filter18_f_415_2902" x="512.567" y="135.178" width="29.9315" height="7.13324" filterUnits="userSpaceOnUse" color-interpolation-filters="sRGB">
<feFlood flood-opacity="0" result="BackgroundImageFix"/>
<feBlend mode="normal" in="SourceGraphic" in2="BackgroundImageFix" result="shape"/>
<feGaussianBlur stdDeviation="0.5" result="effect1_foregroundBlur_415_2902"/>
</filter>
<linearGradient id="paint0_linear_415_2902" x1="769.708" y1="221.137" x2="24.7648" y2="183.435" gradientUnits="userSpaceOnUse">
<stop stop-color="#FE4768"/>
<stop offset="1" stop-color="#4B2CFA"/>
</linearGradient>
<linearGradient id="paint1_linear_415_2902" x1="185.825" y1="266.373" x2="190.796" y2="263.503" gradientUnits="userSpaceOnUse">
<stop offset="0.109375" stop-color="#D1D1D1"/>
<stop offset="0.317708" stop-color="#E3E3E3"/>
<stop offset="0.552083" stop-color="#D2D2D2"/>
<stop offset="0.807292" stop-color="#E6E6E6"/>
</linearGradient>
<linearGradient id="paint2_linear_415_2902" x1="389.528" y1="619.197" x2="394.499" y2="616.327" gradientUnits="userSpaceOnUse">
<stop offset="0.109375" stop-color="#D1D1D1"/>
<stop offset="0.317708" stop-color="#E3E3E3"/>
<stop offset="0.552083" stop-color="#D2D2D2"/>
<stop offset="0.807292" stop-color="#E6E6E6"/>
</linearGradient>
<linearGradient id="paint3_linear_415_2902" x1="392.276" y1="147.179" x2="397.247" y2="144.309" gradientUnits="userSpaceOnUse">
<stop offset="0.0988321" stop-color="#E6E6E6"/>
<stop offset="0.368786" stop-color="#D2D2D2"/>
<stop offset="0.624532" stop-color="#E3E3E3"/>
<stop offset="0.798581" stop-color="#D1D1D1"/>
</linearGradient>
<linearGradient id="paint4_linear_415_2902" x1="595.979" y1="500.003" x2="600.95" y2="497.133" gradientUnits="userSpaceOnUse">
<stop offset="0.0988321" stop-color="#E6E6E6"/>
<stop offset="0.368786" stop-color="#D2D2D2"/>
<stop offset="0.624532" stop-color="#E3E3E3"/>
<stop offset="0.798581" stop-color="#D1D1D1"/>
</linearGradient>
<linearGradient id="paint5_linear_415_2902" x1="325.931" y1="131.202" x2="328.796" y2="136.163" gradientUnits="userSpaceOnUse">
<stop offset="0.238306" stop-color="#D1D1D1"/>
<stop offset="0.416703" stop-color="#E3E3E3"/>
<stop offset="0.700226" stop-color="#D2D2D2"/>
<stop offset="0.926408" stop-color="#E6E6E6"/>
</linearGradient>
<linearGradient id="paint6_linear_415_2902" x1="448.984" y1="628.645" x2="451.848" y2="633.606" gradientUnits="userSpaceOnUse">
<stop offset="0.0988321" stop-color="#E6E6E6"/>
<stop offset="0.368786" stop-color="#D2D2D2"/>
<stop offset="0.624532" stop-color="#E3E3E3"/>
<stop offset="0.798581" stop-color="#D1D1D1"/>
</linearGradient>
<linearGradient id="paint7_linear_415_2902" x1="184.547" y1="225.883" x2="594.687" y2="532.58" gradientUnits="userSpaceOnUse">
<stop stop-color="white" stop-opacity="0.16"/>
<stop offset="1" stop-color="white" stop-opacity="0.05"/>
</linearGradient>
<linearGradient id="paint8_linear_415_2902" x1="207.099" y1="303.896" x2="208.562" y2="303.052" gradientUnits="userSpaceOnUse">
<stop stop-opacity="0"/>
<stop offset="0.333333" stop-color="#D0D0D0" stop-opacity="0.42"/>
<stop offset="1" stop-opacity="0.24"/>
</linearGradient>
<linearGradient id="paint9_linear_415_2902" x1="229.262" y1="342.282" x2="230.724" y2="341.438" gradientUnits="userSpaceOnUse">
<stop stop-opacity="0"/>
<stop offset="0.333333" stop-color="#D0D0D0" stop-opacity="0.42"/>
<stop offset="1" stop-opacity="0.24"/>
</linearGradient>
<linearGradient id="paint10_linear_415_2902" x1="451.678" y1="241.288" x2="453.14" y2="240.444" gradientUnits="userSpaceOnUse">
<stop stop-opacity="0.24"/>
<stop offset="0.573835" stop-color="#D0D0D0" stop-opacity="0.42"/>
<stop offset="1" stop-opacity="0"/>
</linearGradient>
<linearGradient id="paint11_linear_415_2902" x1="252.345" y1="382.263" x2="253.807" y2="381.419" gradientUnits="userSpaceOnUse">
<stop stop-opacity="0"/>
<stop offset="0.333333" stop-color="#D0D0D0" stop-opacity="0.42"/>
<stop offset="1" stop-opacity="0.24"/>
</linearGradient>
<linearGradient id="paint12_linear_415_2902" x1="269.211" y1="166.673" x2="516.384" y2="594.79" gradientUnits="userSpaceOnUse">
<stop stop-color="white" stop-opacity="0.64"/>
<stop offset="1" stop-color="white" stop-opacity="0.32"/>
</linearGradient>
<linearGradient id="paint13_linear_415_2902" x1="185.825" y1="266.373" x2="190.796" y2="263.503" gradientUnits="userSpaceOnUse">
<stop offset="0.123628" stop-color="#8F8F8F"/>
<stop offset="0.365738" stop-color="#525252"/>
<stop offset="0.827659" stop-color="#141414"/>
</linearGradient>
<linearGradient id="paint14_linear_415_2902" x1="389.528" y1="619.197" x2="394.499" y2="616.327" gradientUnits="userSpaceOnUse">
<stop offset="0.123628" stop-color="#8F8F8F"/>
<stop offset="0.365738" stop-color="#525252"/>
<stop offset="0.827659" stop-color="#141414"/>
</linearGradient>
<linearGradient id="paint15_linear_415_2902" x1="392.276" y1="147.179" x2="397.247" y2="144.309" gradientUnits="userSpaceOnUse">
<stop offset="0.088176" stop-color="#141414"/>
<stop offset="0.536358" stop-color="#525252"/>
<stop offset="0.756584" stop-color="#8F8F8F"/>
</linearGradient>
<linearGradient id="paint16_linear_415_2902" x1="595.979" y1="500.003" x2="600.95" y2="497.133" gradientUnits="userSpaceOnUse">
<stop offset="0.088176" stop-color="#141414"/>
<stop offset="0.529254" stop-color="#525252"/>
<stop offset="0.770792" stop-color="#8F8F8F"/>
</linearGradient>
<linearGradient id="paint17_linear_415_2902" x1="325.931" y1="131.202" x2="328.796" y2="136.163" gradientUnits="userSpaceOnUse">
<stop offset="0.420124" stop-color="#8F8F8F"/>
<stop offset="0.610413" stop-color="#525252"/>
<stop offset="0.976264" stop-color="#141414"/>
</linearGradient>
<linearGradient id="paint18_linear_415_2902" x1="448.984" y1="628.645" x2="451.848" y2="633.606" gradientUnits="userSpaceOnUse">
<stop offset="0.122861"/>
<stop offset="0.584624" stop-color="#292929"/>
<stop offset="0.87589" stop-color="#7A7A7A"/>
</linearGradient>
<linearGradient id="paint19_linear_415_2902" x1="184.547" y1="225.883" x2="594.687" y2="532.58" gradientUnits="userSpaceOnUse">
<stop stop-color="white" stop-opacity="0.16"/>
<stop offset="1" stop-color="white" stop-opacity="0.05"/>
</linearGradient>
<linearGradient id="paint20_linear_415_2902" x1="207.099" y1="303.896" x2="208.562" y2="303.052" gradientUnits="userSpaceOnUse">
<stop stop-color="white" stop-opacity="0.08"/>
<stop offset="0.276042" stop-color="white" stop-opacity="0.24"/>
<stop offset="1" stop-color="white" stop-opacity="0"/>
</linearGradient>
<linearGradient id="paint21_linear_415_2902" x1="229.262" y1="342.282" x2="230.724" y2="341.438" gradientUnits="userSpaceOnUse">
<stop stop-color="white" stop-opacity="0.08"/>
<stop offset="0.276042" stop-color="white" stop-opacity="0.24"/>
<stop offset="1" stop-color="white" stop-opacity="0"/>
</linearGradient>
<linearGradient id="paint22_linear_415_2902" x1="451.678" y1="241.288" x2="453.14" y2="240.444" gradientUnits="userSpaceOnUse">
<stop stop-color="white" stop-opacity="0"/>
<stop offset="0.630208" stop-color="white" stop-opacity="0.24"/>
<stop offset="1" stop-color="white" stop-opacity="0.08"/>
</linearGradient>
<linearGradient id="paint23_linear_415_2902" x1="252.345" y1="382.263" x2="253.807" y2="381.419" gradientUnits="userSpaceOnUse">
<stop stop-color="white" stop-opacity="0.08"/>
<stop offset="0.276042" stop-color="white" stop-opacity="0.24"/>
<stop offset="1" stop-color="white" stop-opacity="0"/>
</linearGradient>
<linearGradient id="paint24_linear_415_2902" x1="277.445" y1="180.597" x2="279.804" y2="184.682" gradientUnits="userSpaceOnUse">
<stop/>
<stop offset="0.483028" stop-color="#484848"/>
<stop offset="1"/>
</linearGradient>
<radialGradient id="paint25_radial_415_2902" cx="0" cy="0" r="1" gradientUnits="userSpaceOnUse" gradientTransform="translate(300.628 172.465) rotate(-157.75) scale(4.68803 4.69041)">
<stop stop-color="#242424"/>
<stop offset="1" stop-color="#161616"/>
</radialGradient>
<radialGradient id="paint26_radial_415_2902" cx="0" cy="0" r="1" gradientUnits="userSpaceOnUse" gradientTransform="translate(298.801 170.99) rotate(60) scale(4.71769 4.72726)">
<stop offset="0.463542" stop-opacity="0.25"/>
<stop offset="0.645833" stop-opacity="0"/>
</radialGradient>
<linearGradient id="paint27_linear_415_2902" x1="295.575" y1="170.129" x2="302.025" y2="171.864" gradientUnits="userSpaceOnUse">
<stop stop-color="#4B2CFA" stop-opacity="0.6"/>
<stop offset="1" stop-color="#4B2CFA"/>
</linearGradient>
<radialGradient id="paint28_radial_415_2902" cx="0" cy="0" r="1" gradientUnits="userSpaceOnUse" gradientTransform="translate(296.941 171.481) rotate(28.3406) scale(2.57331 2.57565)">
<stop stop-color="#070D17"/>
<stop offset="1" stop-color="#070D17" stop-opacity="0"/>
</radialGradient>
<radialGradient id="paint29_radial_415_2902" cx="0" cy="0" r="1" gradientUnits="userSpaceOnUse" gradientTransform="translate(299.262 171.113) rotate(76.731) scale(1.75937 1.76235)">
<stop offset="0.146834" stop-color="#070D17"/>
<stop offset="1" stop-color="#070D17" stop-opacity="0"/>
</radialGradient>
<radialGradient id="paint30_radial_415_2902" cx="0" cy="0" r="1" gradientUnits="userSpaceOnUse" gradientTransform="translate(299.134 170.215) rotate(98.7167) scale(1.07971 1.08018)">
<stop stop-color="#6356D7"/>
<stop offset="1" stop-color="#15368A" stop-opacity="0"/>
</radialGradient>
<radialGradient id="paint31_radial_415_2902" cx="0" cy="0" r="1" gradientUnits="userSpaceOnUse" gradientTransform="translate(298.801 170.991) rotate(60) scale(2.35884 2.36362)">
<stop offset="0.828125" stop-opacity="0"/>
<stop offset="1" stop-opacity="0.85"/>
</radialGradient>
<linearGradient id="paint32_linear_415_2902" x1="238.444" y1="304.335" x2="299.136" y2="368.002" gradientUnits="userSpaceOnUse">
<stop stop-color="#FE4768" stop-opacity="0.6"/>
<stop offset="1" stop-color="#FE4768"/>
</linearGradient>
<linearGradient id="paint33_linear_415_2902" x1="259.048" y1="311.913" x2="271.335" y2="315.206" gradientUnits="userSpaceOnUse">
<stop stop-color="#FE4768" stop-opacity="0.6"/>
<stop offset="1" stop-color="#FE4768"/>
</linearGradient>
<linearGradient id="paint34_linear_415_2902" x1="290.723" y1="268.958" x2="303.01" y2="272.251" gradientUnits="userSpaceOnUse">
<stop stop-color="#FE4768" stop-opacity="0.6"/>
<stop offset="1" stop-color="#FE4768"/>
</linearGradient>
<linearGradient id="paint35_linear_415_2902" x1="338.234" y1="259.055" x2="350.521" y2="262.347" gradientUnits="userSpaceOnUse">
<stop stop-color="#FE4768" stop-opacity="0.6"/>
<stop offset="1" stop-color="#FE4768"/>
</linearGradient>
<linearGradient id="paint36_linear_415_2902" x1="357.538" y1="240.769" x2="369.825" y2="244.062" gradientUnits="userSpaceOnUse">
<stop stop-color="#FE4768" stop-opacity="0.6"/>
<stop offset="1" stop-color="#FE4768"/>
</linearGradient>
<linearGradient id="paint37_linear_415_2902" x1="386.87" y1="251.098" x2="399.157" y2="254.39" gradientUnits="userSpaceOnUse">
<stop stop-color="#FE4768" stop-opacity="0.6"/>
<stop offset="1" stop-color="#FE4768"/>
</linearGradient>
<linearGradient id="paint38_linear_415_2902" x1="399.528" y1="243.79" x2="411.815" y2="247.082" gradientUnits="userSpaceOnUse">
<stop stop-color="#FE4768" stop-opacity="0.6"/>
<stop offset="1" stop-color="#FE4768"/>
</linearGradient>
<linearGradient id="paint39_linear_415_2902" x1="405.591" y1="227.307" x2="417.878" y2="230.599" gradientUnits="userSpaceOnUse">
<stop stop-color="#FE4768" stop-opacity="0.6"/>
<stop offset="1" stop-color="#FE4768"/>
</linearGradient>
<linearGradient id="paint40_linear_415_2902" x1="398.564" y1="166.374" x2="404.621" y2="166.374" gradientUnits="userSpaceOnUse">
<stop offset="0.109375" stop-color="#D1D1D1"/>
<stop offset="0.317708" stop-color="#E3E3E3"/>
<stop offset="0.552083" stop-color="#D2D2D2"/>
<stop offset="0.807292" stop-color="#E6E6E6"/>
</linearGradient>
<linearGradient id="paint41_linear_415_2902" x1="398.564" y1="597.395" x2="404.621" y2="597.395" gradientUnits="userSpaceOnUse">
<stop offset="0.109375" stop-color="#D1D1D1"/>
<stop offset="0.317708" stop-color="#E3E3E3"/>
<stop offset="0.552083" stop-color="#D2D2D2"/>
<stop offset="0.807292" stop-color="#E6E6E6"/>
</linearGradient>
<linearGradient id="paint42_linear_415_2902" x1="650.088" y1="166.374" x2="656.144" y2="166.374" gradientUnits="userSpaceOnUse">
<stop offset="0.0988321" stop-color="#E6E6E6"/>
<stop offset="0.368786" stop-color="#D2D2D2"/>
<stop offset="0.624532" stop-color="#E3E3E3"/>
<stop offset="0.798581" stop-color="#D1D1D1"/>
</linearGradient>
<linearGradient id="paint43_linear_415_2902" x1="650.088" y1="597.395" x2="656.144" y2="597.395" gradientUnits="userSpaceOnUse">
<stop offset="0.0988321" stop-color="#E6E6E6"/>
<stop offset="0.368786" stop-color="#D2D2D2"/>
<stop offset="0.624532" stop-color="#E3E3E3"/>
<stop offset="0.798581" stop-color="#D1D1D1"/>
</linearGradient>
<linearGradient id="paint44_linear_415_2902" x1="597.895" y1="116.641" x2="597.895" y2="122.702" gradientUnits="userSpaceOnUse">
<stop offset="0.238306" stop-color="#D1D1D1"/>
<stop offset="0.416703" stop-color="#E3E3E3"/>
<stop offset="0.700226" stop-color="#D2D2D2"/>
<stop offset="0.926408" stop-color="#E6E6E6"/>
</linearGradient>
<linearGradient id="paint45_linear_415_2902" x1="447.907" y1="637.502" x2="447.907" y2="643.563" gradientUnits="userSpaceOnUse">
<stop offset="0.0988321" stop-color="#E6E6E6"/>
<stop offset="0.368786" stop-color="#D2D2D2"/>
<stop offset="0.624532" stop-color="#E3E3E3"/>
<stop offset="0.798581" stop-color="#D1D1D1"/>
</linearGradient>
<linearGradient id="paint46_linear_415_2902" x1="418.757" y1="128.6" x2="632.698" y2="626.14" gradientUnits="userSpaceOnUse">
<stop stop-color="white" stop-opacity="0.16"/>
<stop offset="1" stop-color="white" stop-opacity="0.05"/>
</linearGradient>
<linearGradient id="paint47_linear_415_2902" x1="527.354" y1="119.137" x2="527.354" y2="642.137" gradientUnits="userSpaceOnUse">
<stop stop-color="white" stop-opacity="0.64"/>
<stop offset="1" stop-color="white" stop-opacity="0.32"/>
</linearGradient>
<linearGradient id="paint48_linear_415_2902" x1="398.564" y1="166.374" x2="404.621" y2="166.374" gradientUnits="userSpaceOnUse">
<stop offset="0.123628" stop-color="#8F8F8F"/>
<stop offset="0.365738" stop-color="#525252"/>
<stop offset="0.827659" stop-color="#141414"/>
</linearGradient>
<linearGradient id="paint49_linear_415_2902" x1="398.564" y1="597.395" x2="404.621" y2="597.395" gradientUnits="userSpaceOnUse">
<stop offset="0.123628" stop-color="#8F8F8F"/>
<stop offset="0.365738" stop-color="#525252"/>
<stop offset="0.827659" stop-color="#141414"/>
</linearGradient>
<linearGradient id="paint50_linear_415_2902" x1="650.088" y1="166.374" x2="656.144" y2="166.374" gradientUnits="userSpaceOnUse">
<stop offset="0.088176" stop-color="#141414"/>
<stop offset="0.536358" stop-color="#525252"/>
<stop offset="0.756584" stop-color="#8F8F8F"/>
</linearGradient>
<linearGradient id="paint51_linear_415_2902" x1="650.088" y1="597.395" x2="656.144" y2="597.395" gradientUnits="userSpaceOnUse">
<stop offset="0.088176" stop-color="#141414"/>
<stop offset="0.529254" stop-color="#525252"/>
<stop offset="0.770792" stop-color="#8F8F8F"/>
</linearGradient>
<linearGradient id="paint52_linear_415_2902" x1="597.895" y1="116.641" x2="597.895" y2="122.702" gradientUnits="userSpaceOnUse">
<stop offset="0.420124" stop-color="#8F8F8F"/>
<stop offset="0.610413" stop-color="#525252"/>
<stop offset="0.976264" stop-color="#141414"/>
</linearGradient>
<linearGradient id="paint53_linear_415_2902" x1="447.907" y1="637.502" x2="447.907" y2="643.563" gradientUnits="userSpaceOnUse">
<stop offset="0.122861"/>
<stop offset="0.584624" stop-color="#292929"/>
<stop offset="0.87589" stop-color="#7A7A7A"/>
</linearGradient>
<linearGradient id="paint54_linear_415_2902" x1="418.757" y1="128.6" x2="632.698" y2="626.14" gradientUnits="userSpaceOnUse">
<stop stop-color="white" stop-opacity="0.16"/>
<stop offset="1" stop-color="white" stop-opacity="0.05"/>
</linearGradient>
<linearGradient id="paint55_linear_415_2902" x1="381.292" y1="66.0001" x2="862.289" y2="288.585" gradientUnits="userSpaceOnUse">
<stop stop-color="#FE4768"/>
<stop offset="1" stop-color="#4B2CFA"/>
</linearGradient>
<radialGradient id="paint56_radial_415_2902" cx="0" cy="0" r="1" gradientUnits="userSpaceOnUse" gradientTransform="translate(389.989 194.184) rotate(70.7311) scale(385.234)">
<stop stop-color="#9788EF"/>
<stop offset="0.544612" stop-color="#7A69E3"/>
<stop offset="1" stop-color="#7D50DB"/>
</radialGradient>
<clipPath id="clip0_415_2902">
<rect width="245.474" height="494.346" fill="white" transform="translate(163.208 227.874) rotate(-30)"/>
</clipPath>
<clipPath id="clip1_415_2902">
<rect width="259" height="523" fill="white" transform="translate(398.208 119.137)"/>
</clipPath>
<clipPath id="clip2_415_2902">
<rect x="381.292" y="66.0001" width="292" height="631" rx="48" fill="white"/>
</clipPath>
</defs>
</svg>
