<svg width="40" height="40" viewBox="0 0 40 40" fill="none" xmlns="http://www.w3.org/2000/svg">
<ellipse cx="19.8987" cy="19.9668" rx="19.8587" ry="19.2036" fill="url(#paint0_linear_1306_4102)"/>
<g clip-path="url(#clip0_1306_4102)">
<path d="M29.9437 15.0547L28.1556 16.7838C27.9733 16.9601 27.6785 16.9601 27.4962 16.7838L23.1909 12.6205C23.0087 12.4442 23.0087 12.1592 23.1909 11.9829L24.979 10.2538C25.7043 9.55244 26.8834 9.55244 27.6126 10.2538L29.9437 12.508C30.6729 13.2094 30.6729 14.3496 29.9437 15.0547ZM21.655 13.4682L11.4697 23.3175L10.6474 27.8746C10.5349 28.4897 11.0896 29.0223 11.7257 28.9173L16.4382 28.1184L26.6236 18.2691C26.8058 18.0928 26.8058 17.8077 26.6236 17.6315L22.3183 13.4682C22.1321 13.2919 21.8373 13.2919 21.655 13.4682ZM15.4453 22.4736C15.232 22.2673 15.232 21.9373 15.4453 21.731L21.4184 15.9549C21.6317 15.7486 21.9731 15.7486 22.1864 15.9549C22.3997 16.1612 22.3997 16.4912 22.1864 16.6975L16.2133 22.4736C15.9999 22.6799 15.6586 22.6799 15.4453 22.4736ZM14.0451 25.628H15.9069V26.9895L13.4051 27.4133L12.1989 26.2468L12.6372 23.8276H14.0451V25.628Z" fill="white"/>
</g>
<defs>
<linearGradient id="paint0_linear_1306_4102" x1="0.0400391" y1="0.763184" x2="38.4257" y2="40.4582" gradientUnits="userSpaceOnUse">
<stop stop-color="#FE4768"/>
<stop offset="1" stop-color="#4B2CFA"/>
</linearGradient>
<clipPath id="clip0_1306_4102">
<rect width="19.8587" height="19.2036" fill="white" transform="translate(10.6318 9.72485)"/>
</clipPath>
</defs>
</svg>
