<svg width="48" height="67" viewBox="0 0 48 67" fill="none" xmlns="http://www.w3.org/2000/svg">
<path d="M24.3996 34.6975C31.2805 34.6975 36.8586 29.1194 36.8586 22.2385C36.8586 15.3576 31.2805 9.77954 24.3996 9.77954C17.5187 9.77954 11.9407 15.3576 11.9407 22.2385C11.9407 29.1194 17.5187 34.6975 24.3996 34.6975Z" fill="white"/>
<path d="M45.6194 22.3308C45.6194 24.4215 41.514 25.8312 40.9019 27.716C40.2687 29.6694 42.7382 33.2226 41.5562 34.8487C40.3637 36.4907 36.2108 35.2341 34.5697 36.4273C32.9445 37.61 32.8653 41.9551 30.9129 42.5886C29.0291 43.2011 26.4223 39.7535 24.3327 39.7535C22.2431 39.7535 19.6363 43.2011 17.7525 42.5886C15.8001 41.9551 15.7209 37.61 14.0957 36.4273C12.4546 35.2341 8.30173 36.4907 7.10917 34.8487C5.92716 33.2226 8.39671 29.6694 7.76349 27.716C7.15138 25.8312 3.04602 24.4162 3.04602 22.3308C3.04602 20.2453 7.15138 18.8304 7.76349 16.9456C8.39671 14.9921 5.92716 11.4389 7.10917 9.81281C8.30173 8.17085 12.4546 9.4274 14.0957 8.23421C15.7209 7.05157 15.8001 2.70645 17.7525 2.0729C19.6363 1.46047 22.2431 4.90805 24.3327 4.90805C26.4223 4.90805 29.0291 1.46047 30.9129 2.0729C32.8653 2.70645 32.9445 7.05157 34.5697 8.23421C36.2108 9.4274 40.3637 8.17085 41.5562 9.81281C42.7382 11.4389 40.2687 14.9921 40.9019 16.9456C41.5087 18.8251 45.6194 20.24 45.6194 22.3308Z" stroke="white" stroke-width="2.5" stroke-miterlimit="10"/>
<path d="M24.0004 43.4809L32.9235 63.876C33.5197 65.2381 35.3666 65.3912 35.8257 64.1189L37.2979 59.2247C37.5829 58.4274 38.5011 58.1159 39.3242 58.5383L44.1314 61.2573C45.4453 61.9278 46.6907 60.7399 46.0997 59.383L35.7307 35.6829" stroke="white" stroke-width="2.5" stroke-miterlimit="10"/>
<path d="M25.4884 40.0808L15.0772 63.876C14.481 65.2381 12.6341 65.3912 12.175 64.1189L10.7028 59.2247C10.4178 58.4274 9.49965 58.1159 8.67647 58.5383L3.86929 61.2573C2.55537 61.9278 1.31004 60.7399 1.90104 59.383L12.2753 35.6829" stroke="white" stroke-width="2.5" stroke-miterlimit="10"/>
</svg>
