<svg width="54" height="75" viewBox="0 0 54 75" fill="none" xmlns="http://www.w3.org/2000/svg">
<path d="M51.8713 27.3269C51.8713 12.7385 39.6673 1.03117 25.02 2.0634C12.719 2.92577 2.73221 12.9606 1.82079 25.3931C1.01925 36.3426 7.10185 45.9462 16.1514 50.2516C17.5088 50.8983 18.375 52.2768 18.375 53.7925V59.7964V64.3304C18.375 68.7076 21.5488 72.549 25.8538 73.0325C30.941 73.6009 35.2524 69.5895 35.2524 64.5591V53.7925C35.2524 52.2768 36.1251 50.8983 37.4825 50.2516C45.9826 46.1945 51.8713 37.4597 51.8713 27.3269Z" stroke="white" stroke-width="2.5" stroke-miterlimit="10"/>
<path d="M35.2461 59.4502H18.3687" stroke="white" stroke-width="2.5" stroke-miterlimit="10"/>
<path d="M26.8106 28.9535C21.9044 28.9535 17.9097 32.9909 17.9097 37.9496V43.1891C20.5146 44.7571 23.5592 45.6652 26.8106 45.6652C30.0619 45.6652 33.1065 44.7636 35.7114 43.1891V37.9496C35.7114 32.9909 31.7167 28.9535 26.8106 28.9535Z" fill="white"/>
<path d="M13.5206 37.9496C13.5206 30.5411 19.4804 24.5175 26.8105 24.5175C34.1407 24.5175 40.1005 30.5411 40.1005 37.9496V39.4326C42.6731 36.3621 44.2245 32.3965 44.2245 28.065C44.2245 18.3438 36.4289 10.4648 26.8105 10.4648C17.1922 10.4648 9.39661 18.3438 9.39661 28.065C9.39661 32.403 10.948 36.3686 13.5206 39.4326V37.9496Z" fill="white"/>
</svg>
