<svg width="54" height="60" viewBox="0 0 54 60" fill="none" xmlns="http://www.w3.org/2000/svg">
<path d="M26.4601 16.8613C24.2303 16.799 22.1166 15.8512 20.584 14.2265C19.0514 12.6017 18.2255 10.4331 18.288 8.19767C18.3189 7.09079 18.567 6.00083 19.0181 4.99001C19.4691 3.97918 20.1144 3.0673 20.917 2.30643C21.7195 1.54555 22.6637 0.950582 23.6956 0.55549C24.7275 0.160398 25.8269 -0.0270805 26.931 0.00375943C29.1608 0.0660452 31.2745 1.01381 32.8071 2.63854C34.3397 4.26328 35.1656 6.43191 35.1031 8.66735C35.0722 9.77423 34.8241 10.8642 34.373 11.875C33.922 12.8858 33.2767 13.7977 32.4741 14.5586C31.6715 15.3195 30.7274 15.9144 29.6955 16.3095C28.6636 16.7046 27.5642 16.8921 26.4601 16.8613Z" fill="white"/>
<path d="M51.1304 25.976C48.3527 31.9938 45.3296 38.2022 42.1848 43.7136C40.0365 47.4784 37.9776 50.7262 36.0082 53.4569C34.7728 55.1699 33.3504 56.7517 31.741 58.2023C29.6639 60.0747 27.135 60.3447 24.5549 59.6459C23.3901 59.33 22.303 58.4458 21.4154 57.6058C20.1471 56.4058 19.0123 55.1381 18.0111 53.8028C15.684 50.6968 13.551 47.4337 11.6121 44.0136C7.90021 37.4652 4.39481 30.5732 1.09588 23.3377C0.24703 21.4776 -0.111224 19.8628 0.029957 17.7681C0.457029 11.4414 6.96901 11.1096 11.7356 11.8014C12.7239 11.9444 13.4351 12.4985 13.8233 13.3703C15.8511 17.9445 19.6312 21.7 24.7031 22.3106C27.8091 22.6829 30.9574 22.3723 33.5993 20.8017C36.3082 19.1905 38.4188 16.4639 39.7371 13.6368C40.2277 12.5885 40.8083 11.9708 41.966 11.7961C46.3444 11.1414 52.5581 11.4432 53.3046 17.1186C53.5199 18.7599 53.3864 20.3393 52.904 21.857C52.4787 23.2 51.7587 24.6171 51.1304 25.976Z" fill="white"/>
</svg>
