<svg width="57" height="57" viewBox="0 0 57 57" fill="none" xmlns="http://www.w3.org/2000/svg">
<circle cx="28.5" cy="28.5" r="28" fill="url(#paint0_linear_545_6508)"/>
<g clip-path="url(#clip0_545_6508)">
<path d="M40.1663 20.5433L26.8547 33.8666L21.908 28.9199L23.553 27.2749L26.8547 30.5766L38.5213 18.9099L40.1663 20.5433ZM28.4997 37.8333C23.3547 37.8333 19.1663 33.6449 19.1663 28.4999C19.1663 23.3549 23.3547 19.1666 28.4997 19.1666C30.3313 19.1666 32.0463 19.7033 33.493 20.6249L35.1847 18.9333C33.283 17.6149 30.9847 16.8333 28.4997 16.8333C22.0597 16.8333 16.833 22.0599 16.833 28.4999C16.833 34.9399 22.0597 40.1666 28.4997 40.1666C30.518 40.1666 32.4197 39.6533 34.0763 38.7433L32.3263 36.9933C31.1597 37.5299 29.8647 37.8333 28.4997 37.8333ZM36.6663 31.9999H33.1663V34.3333H36.6663V37.8333H38.9997V34.3333H42.4997V31.9999H38.9997V28.4999H36.6663V31.9999Z" fill="white"/>
</g>
<defs>
<linearGradient id="paint0_linear_545_6508" x1="0.5" y1="0.5" x2="56.5" y2="56.5" gradientUnits="userSpaceOnUse">
<stop stop-color="#FE4768" stop-opacity="0.6"/>
<stop offset="1" stop-color="#FE4768"/>
</linearGradient>
<clipPath id="clip0_545_6508">
<rect width="28" height="28" fill="white" transform="translate(14.5 14.5)"/>
</clipPath>
</defs>
</svg>
