<svg width="61" height="67" viewBox="0 0 61 67" fill="none" xmlns="http://www.w3.org/2000/svg">
<path d="M54.9117 64.9677C57.9943 64.9677 60.2419 62.0786 59.5098 59.0926C56.8676 48.334 47.1223 40.3447 35.5069 40.3447C23.8914 40.3447 14.1404 48.334 11.5039 59.0983C10.7719 62.0843 13.0195 64.9677 16.102 64.9677H54.9117Z" stroke="white" stroke-width="2.5" stroke-miterlimit="10"/>
<path d="M35.5068 34.9653C42.901 34.9653 48.8951 28.9928 48.8951 21.6252C48.8951 14.2577 42.901 8.28516 35.5068 8.28516C28.1126 8.28516 22.1184 14.2577 22.1184 21.6252C22.1184 28.9928 28.1126 34.9653 35.5068 34.9653Z" stroke="white" stroke-width="2.5" stroke-miterlimit="10"/>
<path d="M7.16298 57.2181C9.37055 48.226 15.0553 41.1656 25.0351 37.8833C13.7914 38.2594 3.46846 45.411 0.889152 55.9132C0.15711 58.8992 2.40471 61.7826 5.48729 61.7826H7.99225C7.12295 60.5061 6.75693 58.8764 7.16298 57.2181Z" fill="white"/>
<path d="M18.1092 18.9701C18.1092 10.7188 24.8234 4.02881 33.1046 4.02881C36.0328 4.02881 38.7665 4.86648 41.0713 6.31389C38.5263 2.51302 34.1798 0 29.2442 0C21.4091 0 15.0552 6.33098 15.0552 14.1436C15.0552 17.8988 16.5307 21.3122 18.927 23.848C18.4008 22.3151 18.1092 20.6797 18.1092 18.9701Z" fill="white"/>
</svg>
