<svg width="57" height="57" viewBox="0 0 57 57" fill="none" xmlns="http://www.w3.org/2000/svg">
<circle cx="28.5" cy="28.5" r="28" fill="#F4F7FE"/>
<g clip-path="url(#clip0_1073_3459)">
<path d="M31.7503 16.5833H19.8337C18.642 16.5833 17.667 17.5583 17.667 18.7499V32.8333C17.667 33.4291 18.1545 33.9166 18.7503 33.9166C19.3462 33.9166 19.8337 33.4291 19.8337 32.8333V19.8333C19.8337 19.2374 20.3212 18.7499 20.917 18.7499H31.7503C32.3462 18.7499 32.8337 18.2624 32.8337 17.6666C32.8337 17.0708 32.3462 16.5833 31.7503 16.5833ZM32.3895 21.5558L37.622 26.7883C38.0228 27.1891 38.2503 27.7416 38.2503 28.3158V38.2499C38.2503 39.4416 37.2753 40.4166 36.0837 40.4166H24.1562C22.9645 40.4166 22.0003 39.4416 22.0003 38.2499L22.0112 23.0833C22.0112 21.8916 22.9753 20.9166 24.167 20.9166H30.8512C31.4253 20.9166 31.9778 21.1441 32.3895 21.5558ZM31.7503 28.4999H36.6253L30.667 22.5416V27.4166C30.667 28.0124 31.1545 28.4999 31.7503 28.4999Z" fill="url(#paint0_linear_1073_3459)"/>
</g>
<defs>
<linearGradient id="paint0_linear_1073_3459" x1="17.667" y1="16.5833" x2="41.2465" y2="36.9474" gradientUnits="userSpaceOnUse">
<stop stop-color="#FE4768"/>
<stop offset="1" stop-color="#4B2CFA"/>
</linearGradient>
<clipPath id="clip0_1073_3459">
<rect width="26" height="26" fill="white" transform="translate(15.5 15.5)"/>
</clipPath>
</defs>
</svg>
