<svg width="45" height="51" viewBox="0 0 45 51" fill="none" xmlns="http://www.w3.org/2000/svg">
<path d="M22.0964 14.6788C20.2603 14.6275 18.5199 13.8468 17.2579 12.5085C15.996 11.1701 15.3159 9.38371 15.3673 7.54229C15.3928 6.63051 15.5971 5.73266 15.9685 4.90001C16.3399 4.06735 16.8712 3.3162 17.5321 2.68944C18.1929 2.06268 18.9704 1.57258 19.8201 1.24712C20.6697 0.921671 21.575 0.767238 22.4841 0.792642C24.3202 0.843949 26.0606 1.62466 27.3225 2.96302C28.5845 4.30138 29.2645 6.08776 29.2131 7.92918C29.1877 8.84096 28.9834 9.73881 28.612 10.5715C28.2405 11.4041 27.7092 12.1553 27.0484 12.782C26.3875 13.4088 25.6101 13.8989 24.7604 14.2243C23.9107 14.5498 23.0055 14.7042 22.0964 14.6788Z" fill="#3A2A95"/>
<path d="M42.4102 22.187C40.123 27.1441 37.6338 32.2583 35.0443 36.7982C33.2754 39.8994 31.5801 42.5747 29.9584 44.8241C28.9412 46.2351 27.77 47.5381 26.4447 48.7331C24.7344 50.2755 22.6521 50.4979 20.5276 49.9222C19.5685 49.662 18.6734 48.9337 17.9425 48.2417C16.8982 47.2532 15.9638 46.209 15.1394 45.109C13.2232 42.5505 11.4669 39.8626 9.87037 37.0453C6.81396 31.6511 3.92757 25.9739 1.2112 20.0137C0.512245 18.4815 0.217255 17.1514 0.333505 15.4258C0.685161 10.2143 6.0472 9.941 9.97209 10.5109C10.7858 10.6286 11.3714 11.0851 11.6911 11.8032C13.3608 15.5712 16.4734 18.6647 20.6497 19.1677C23.2072 19.4744 25.7995 19.2185 27.9749 17.9247C30.2054 16.5975 31.9433 14.3515 33.0288 12.0227C33.4328 11.1592 33.9109 10.6504 34.8641 10.5065C38.4693 9.96716 43.5858 10.2157 44.2004 14.8909C44.3777 16.2428 44.2678 17.5439 43.8706 18.7941C43.5204 19.9003 42.9275 21.0677 42.4102 22.187Z" fill="#FE4768"/>
</svg>
