<svg width="64" height="55" viewBox="0 0 64 55" fill="none" xmlns="http://www.w3.org/2000/svg">
<path d="M38.0756 4.23273C38.0756 5.35532 37.6303 6.43193 36.8376 7.22572C36.045 8.01951 34.9699 8.46546 33.8489 8.46546C32.7278 8.46546 31.6527 8.01951 30.8601 7.22572C30.0674 6.43193 29.6221 5.35532 29.6221 4.23273C29.6221 3.11014 30.0674 2.03353 30.8601 1.23974C31.6527 0.445946 32.7278 0 33.8489 0C34.9699 0 36.045 0.445946 36.8376 1.23974C37.6303 2.03353 38.0756 3.11014 38.0756 4.23273Z" fill="white"/>
<path d="M45.2259 14.9376C44.5524 16.3966 43.8213 17.8256 43.0928 19.2374C42.2377 20.8926 41.3053 22.5387 40.2955 24.1756C39.8677 24.8681 39.4003 25.5581 38.9313 26.2524C38.1088 27.4694 37.2073 28.4992 36.2268 29.3417C35.917 29.609 35.5435 29.8149 35.1065 29.9594C34.5791 30.1341 33.9596 30.1143 33.4115 30.0713C32.6263 30.0085 31.9717 29.6274 31.3694 29.0716C30.3995 28.1786 29.5954 27.2039 28.8231 26.0975C27.9356 24.826 27.1092 23.5648 26.3463 22.2132C25.702 21.0699 25.0757 19.9437 24.4829 18.8158C23.7638 17.4479 23.0843 16.1041 22.4399 14.7767C21.921 13.7087 21.423 12.6526 20.946 11.6082C20.4763 10.5798 20.3349 9.51846 20.5216 8.42414C20.9889 5.68577 24.2621 5.60577 26.3428 5.91978C26.9219 6.00667 27.1899 6.31982 27.4614 6.86096C27.5708 7.07948 27.6782 7.28566 27.7836 7.47952C28.3729 8.5681 29.1472 9.4548 30.1066 10.1396C31.3772 11.0472 32.9072 11.3389 34.5138 11.2485C36.26 11.1499 37.7125 10.4496 38.8711 9.14767C39.4885 8.45425 40.0226 7.63954 40.4734 6.70352C40.6904 6.25329 41.0301 5.99205 41.4923 5.91978C43.0421 5.67803 45.0292 5.66169 46.2749 6.74912C46.8427 7.24466 47.1589 7.93032 47.2122 8.64954C47.2577 9.27155 47.2706 9.99679 47.1134 10.605C46.9942 11.0656 46.8416 11.4917 46.6555 11.8835C46.1744 12.8986 45.6978 13.9167 45.2259 14.9376Z" fill="white"/>
<path d="M49.7509 32.2979C49.7509 32.9069 49.5093 33.4909 49.0793 33.9215C48.6493 34.3521 48.066 34.594 47.4579 34.594C46.8498 34.594 46.2666 34.3521 45.8366 33.9215C45.4066 33.4909 45.165 32.9069 45.165 32.2979C45.165 31.6889 45.4066 31.1049 45.8366 30.6742C46.2666 30.2436 46.8498 30.0017 47.4579 30.0017C48.066 30.0017 48.6493 30.2436 49.0793 30.6742C49.5093 31.1049 49.7509 31.6889 49.7509 32.2979Z" fill="white"/>
<path d="M8.27855 43.2273C8.28599 43.225 8.29315 43.2233 8.30002 43.2221C8.30289 43.2216 8.30489 43.2198 8.30604 43.217C9.6239 39.7711 10.9455 36.327 12.2708 32.8846C12.4306 32.47 12.7267 32.115 13.1591 31.8196C13.751 31.4144 14.5543 31.3886 15.2158 31.6492C16.1264 32.0071 16.7098 32.9285 16.5431 33.9093C16.4684 34.3532 16.3103 34.8057 16.135 35.2238C14.4312 39.2965 12.727 43.3684 11.0225 47.4394C10.5835 48.4872 9.97871 49.308 8.75449 49.4344C7.35759 49.579 6.27941 49.148 5.721 47.8214C4.15743 44.1128 2.36763 39.8486 0.351606 35.0285C0.195249 34.656 0.0388916 34.1622 0.00710482 33.7639C-0.08396 32.6205 0.709851 31.7069 1.84387 31.515C2.96156 31.3249 3.93234 31.9374 4.3344 32.9836C5.64654 36.3979 6.95524 39.8093 8.2605 43.2178C8.26186 43.2213 8.26443 43.2242 8.26775 43.226C8.27107 43.2277 8.2749 43.2282 8.27855 43.2273Z" fill="white"/>
<path d="M23.3825 43.321C24.2164 41.4736 25.0402 39.6612 25.8541 37.8838C26.3404 36.8213 27.4718 36.244 28.6178 36.7293C29.4297 37.0734 30.0001 37.9457 29.8378 38.8439C29.7811 39.1559 29.682 39.4639 29.5405 39.7679C27.9638 43.1564 26.4013 46.5093 24.8532 49.8266C24.3922 50.8143 23.8865 51.7144 23.3361 52.5271C22.5173 53.735 21.0113 55.3016 19.4117 54.6452C19.0864 54.5116 18.8246 54.3023 18.6265 54.0172C18.0964 53.2558 18.1806 52.362 18.745 51.6273C18.8819 51.45 19.0199 51.2854 19.1591 51.1334C19.9306 50.2903 20.5781 49.3535 21.1015 48.3228C21.1088 48.3083 21.1126 48.2924 21.1128 48.2761C21.1129 48.2599 21.1094 48.2438 21.1024 48.229C19.7284 45.2908 18.3931 42.4231 17.0964 39.6259C16.8413 39.0753 16.7184 38.3905 16.9907 37.8141C17.5122 36.7138 18.8395 36.1778 19.9246 36.8368C20.3318 37.0846 20.6497 37.4579 20.8782 37.9569C21.6846 39.7183 22.4976 41.5063 23.3172 43.321C23.3389 43.3697 23.3607 43.3697 23.3825 43.321Z" fill="white"/>
<path d="M37.0413 43.4785C37.044 43.4841 37.0482 43.4888 37.0534 43.4922C37.0586 43.4956 37.0646 43.4975 37.0708 43.4975C37.0769 43.4976 37.0829 43.496 37.088 43.4927C37.0932 43.4895 37.0972 43.4849 37.0997 43.4793C37.9921 41.5729 38.8681 39.7091 39.7277 37.8882C40.1178 37.0614 40.8798 36.4996 41.7827 36.5598C42.9373 36.6373 43.915 37.6688 43.714 38.8465C43.6561 39.1855 43.5639 39.4846 43.4373 39.7438C42.1831 42.3213 40.9508 44.867 39.7406 47.3808C39.4268 48.0335 39.1653 48.4657 38.9563 48.6773C37.9211 49.7295 36.1685 49.726 35.1711 48.6618C34.9614 48.4381 34.7031 48.006 34.3962 47.3653C33.2072 44.8853 31.997 42.3864 30.7656 39.8686C30.6522 39.6363 30.5568 39.3759 30.4795 39.0874C30.1256 37.7686 31.1505 36.5899 32.4709 36.5564C33.2372 36.5375 33.8687 36.9831 34.269 37.6111C34.3211 37.6937 34.4629 37.9796 34.6943 38.4689C35.4766 40.1235 36.259 41.7934 37.0413 43.4785Z" fill="white"/>
<path d="M49.561 47.2208C49.5593 48.3814 49.0601 49.32 47.7758 49.4439C46.2414 49.5919 45.421 48.6989 45.4193 47.2054C45.4152 43.9402 45.4158 41.1155 45.421 38.7313C45.4236 37.6378 45.9046 36.7526 47.0481 36.5866C48.5782 36.3655 49.5575 37.1724 49.5601 38.7313C49.5641 41.3971 49.5644 44.227 49.561 47.2208Z" fill="white"/>
<path d="M57.7362 40.1534C58.4642 39.2598 59.199 38.3574 59.9407 37.446C60.5867 36.6528 61.5644 36.3113 62.4982 36.7621C63.0566 37.0313 63.4888 37.5888 63.6657 38.1876C63.8986 38.9799 63.4999 39.6613 62.993 40.2463C62.2027 41.1582 61.404 42.0808 60.597 43.0139C60.5873 43.0254 60.5873 43.0372 60.597 43.0492C61.4029 43.9824 62.2084 44.9147 63.0137 45.8461C63.5927 46.5163 63.9243 47.2613 63.5403 48.1362C63.1004 49.1394 61.8745 49.8027 60.8169 49.2693C60.4819 49.1006 60.209 48.8881 59.9982 48.6318C59.2777 47.7554 58.532 46.84 57.7611 45.8857C57.7382 45.857 57.715 45.857 57.6915 45.8857C57.01 46.7184 56.3175 47.5701 55.6142 48.4408C54.7921 49.4585 53.6692 49.856 52.5309 48.9587C52.1718 48.6759 51.9272 48.2948 51.7972 47.8153C51.5962 47.0763 51.9536 46.4036 52.4313 45.8504C53.2211 44.9356 54.0214 44.009 54.8324 43.0707C54.8553 43.0449 54.8553 43.0188 54.8324 42.9924C54.0169 42.049 53.2173 41.125 52.4338 40.2205C51.7311 39.4101 51.4244 38.5618 52.0824 37.5484C52.9373 36.2338 54.5421 36.27 55.5 37.44C56.2313 38.333 56.9676 39.2375 57.7087 40.1534C57.7103 40.1555 57.7124 40.1573 57.7148 40.1585C57.7172 40.1597 57.7198 40.1603 57.7225 40.1603C57.7251 40.1603 57.7278 40.1597 57.7301 40.1585C57.7325 40.1573 57.7346 40.1555 57.7362 40.1534Z" fill="white"/>
</svg>
