<svg width="51" height="54" viewBox="0 0 51 54" fill="none" xmlns="http://www.w3.org/2000/svg">
<path d="M43.4145 37.8633L34.7314 46.5198C33.6189 47.6283 32.1202 48.247 30.5495 48.247H7.67264C4.40231 48.247 1.75 45.5918 1.75 42.3179V7.9291C1.75 4.65521 4.40231 2 7.67264 2H39.2326C42.5029 2 45.1552 4.65521 45.1552 7.9291V33.6614C45.1603 35.2391 44.532 36.7497 43.4145 37.8633Z" stroke="white" stroke-width="2.5" stroke-miterlimit="10"/>
<path d="M48.6781 43.3953L39.995 52.0518C38.8826 53.1603 37.3839 53.779 35.8131 53.779H12.9414C9.67111 53.779 7.0188 51.1238 7.0188 47.8499V13.4611C7.0188 10.1872 9.67111 7.53198 12.9414 7.53198H44.5014C47.7717 7.53198 50.424 10.1872 50.424 13.4611V39.1934C50.424 40.7711 49.7957 42.2817 48.6781 43.3953Z" fill="white"/>
<path d="M15.4758 21.5492C15.4758 20.9058 15.9974 20.3843 16.6408 20.3843H41.4927C42.136 20.3843 42.6576 20.9058 42.6576 21.5492C42.6576 22.1926 42.136 22.7141 41.4927 22.7141H16.6408C15.9974 22.7141 15.4758 22.1926 15.4758 21.5492Z" fill="white"/>
<path d="M15.4758 26.986C15.4758 26.3426 15.9974 25.821 16.6408 25.821H41.4927C42.136 25.821 42.6576 26.3426 42.6576 26.986C42.6576 27.6294 42.136 28.1509 41.4927 28.1509H16.6408C15.9974 28.1509 15.4758 27.6294 15.4758 26.986Z" fill="white"/>
<path d="M15.476 32.4221C15.476 31.7788 15.9975 31.2572 16.6409 31.2572H41.4928C42.1362 31.2572 42.6577 31.7788 42.6577 32.4221C42.6577 33.0655 42.1362 33.5871 41.4928 33.5871H16.6409C15.9975 33.5871 15.476 33.0655 15.476 32.4221Z" fill="white"/>
<path d="M15.476 37.8584C15.476 37.215 15.9975 36.6935 16.6409 36.6935H29.0668C29.7102 36.6935 30.2318 37.215 30.2318 37.8584C30.2318 38.5018 29.7102 39.0233 29.0668 39.0233H16.6409C15.9975 39.0233 15.476 38.5018 15.476 37.8584Z" fill="white"/>
</svg>
